<?xml version="1.0" encoding="UTF-8" standalone="no"?>
<!DOCTYPE svg PUBLIC "-//W3C//DTD SVG 1.1//EN"
 "http://www.w3.org/Graphics/SVG/1.1/DTD/svg11.dtd">
<!-- Generated by graphviz version 6.0.1 (0)
 -->
<!-- Title: snakemake_dag Pages: 1 -->
<svg width="187pt" height="188pt"
 viewBox="0.00 0.00 186.50 188.00" xmlns="http://www.w3.org/2000/svg" xmlns:xlink="http://www.w3.org/1999/xlink">
<g id="graph0" class="graph" transform="scale(1 1) rotate(0) translate(4 184)">
<title>snakemake_dag</title>
<polygon fill="white" stroke="none" points="-4,4 -4,-184 182.5,-184 182.5,4 -4,4"/>
<!-- 0 -->
<g id="node1" class="node">
<title>0</title>
<path fill="none" stroke="#59d856" stroke-width="2" d="M74.5,-36C74.5,-36 44.5,-36 44.5,-36 38.5,-36 32.5,-30 32.5,-24 32.5,-24 32.5,-12 32.5,-12 32.5,-6 38.5,0 44.5,0 44.5,0 74.5,0 74.5,0 80.5,0 86.5,-6 86.5,-12 86.5,-12 86.5,-24 86.5,-24 86.5,-30 80.5,-36 74.5,-36"/>
<text text-anchor="middle" x="59.5" y="-15.5" font-family="sans" font-size="10.00">all</text>
</g>
<!-- 1 -->
<g id="node2" class="node">
<title>1</title>
<path fill="none" stroke="#d6d856" stroke-width="2" stroke-dasharray="5,2" d="M47,-180C47,-180 12,-180 12,-180 6,-180 0,-174 0,-168 0,-168 0,-156 0,-156 0,-150 6,-144 12,-144 12,-144 47,-144 47,-144 53,-144 59,-150 59,-156 59,-156 59,-168 59,-168 59,-174 53,-180 47,-180"/>
<text text-anchor="middle" x="29.5" y="-159.5" font-family="sans" font-size="10.00">rules_dag</text>
</g>
<!-- 1&#45;&gt;0 -->
<g id="edge1" class="edge">
<title>1&#45;&gt;0</title>
<path fill="none" stroke="grey" stroke-width="2" d="M23.31,-143.81C17.7,-125.54 11.45,-96.03 19.5,-72 22.85,-62 28.92,-52.38 35.33,-44.14"/>
<polygon fill="grey" stroke="grey" stroke-width="2" points="38.06,-46.33 41.77,-36.4 32.68,-41.85 38.06,-46.33"/>
</g>
<!-- 3 -->
<g id="node4" class="node">
<title>3</title>
<path fill="none" stroke="#d85656" stroke-width="2" d="M78,-108C78,-108 41,-108 41,-108 35,-108 29,-102 29,-96 29,-96 29,-84 29,-84 29,-78 35,-72 41,-72 41,-72 78,-72 78,-72 84,-72 90,-78 90,-84 90,-84 90,-96 90,-96 90,-102 84,-108 78,-108"/>
<text text-anchor="middle" x="59.5" y="-87.5" font-family="sans" font-size="10.00">ghp_index</text>
</g>
<!-- 1&#45;&gt;3 -->
<g id="edge4" class="edge">
<title>1&#45;&gt;3</title>
<path fill="none" stroke="grey" stroke-width="2" d="M36.92,-143.7C40.29,-135.81 44.37,-126.3 48.12,-117.55"/>
<polygon fill="grey" stroke="grey" stroke-width="2" points="51.45,-118.67 52.17,-108.1 45.01,-115.92 51.45,-118.67"/>
</g>
<!-- 2 -->
<g id="node3" class="node">
<title>2</title>
<path fill="none" stroke="#56d8d8" stroke-width="2" d="M166.5,-108C166.5,-108 120.5,-108 120.5,-108 114.5,-108 108.5,-102 108.5,-96 108.5,-96 108.5,-84 108.5,-84 108.5,-78 114.5,-72 120.5,-72 120.5,-72 166.5,-72 166.5,-72 172.5,-72 178.5,-78 178.5,-84 178.5,-84 178.5,-96 178.5,-96 178.5,-102 172.5,-108 166.5,-108"/>
<text text-anchor="middle" x="143.5" y="-87.5" font-family="sans" font-size="10.00">render_book</text>
</g>
<!-- 2&#45;&gt;0 -->
<g id="edge2" class="edge">
<title>2&#45;&gt;0</title>
<path fill="none" stroke="grey" stroke-width="2" d="M122.74,-71.7C112.26,-62.97 99.39,-52.24 88,-42.75"/>
<polygon fill="grey" stroke="grey" stroke-width="2" points="89.95,-39.82 80.03,-36.1 85.47,-45.19 89.95,-39.82"/>
</g>
<!-- 3&#45;&gt;0 -->
<g id="edge3" class="edge">
<title>3&#45;&gt;0</title>
<path fill="none" stroke="grey" stroke-width="2" d="M59.5,-71.7C59.5,-63.98 59.5,-54.71 59.5,-46.11"/>
<polygon fill="grey" stroke="grey" stroke-width="2" points="63,-46.1 59.5,-36.1 56,-46.1 63,-46.1"/>
</g>
</g>
</svg>
