<?xml version="1.0" encoding="UTF-8" standalone="no"?>
<!DOCTYPE svg PUBLIC "-//W3C//DTD SVG 1.1//EN"
 "http://www.w3.org/Graphics/SVG/1.1/DTD/svg11.dtd">
<!-- Generated by graphviz version 6.0.1 (0)
 -->
<!-- Title: snakemake_dag Pages: 1 -->
<svg width="526pt" height="332pt"
 viewBox="0.00 0.00 525.50 332.00" xmlns="http://www.w3.org/2000/svg" xmlns:xlink="http://www.w3.org/1999/xlink">
<g id="graph0" class="graph" transform="scale(1 1) rotate(0) translate(4 328)">
<title>snakemake_dag</title>
<polygon fill="white" stroke="none" points="-4,4 -4,-328 521.5,-328 521.5,4 -4,4"/>
<!-- 0 -->
<g id="node1" class="node">
<title>0</title>
<path fill="none" stroke="#56d8c1" stroke-width="2" d="M289,-36C289,-36 259,-36 259,-36 253,-36 247,-30 247,-24 247,-24 247,-12 247,-12 247,-6 253,0 259,0 259,0 289,0 289,0 295,0 301,-6 301,-12 301,-12 301,-24 301,-24 301,-30 295,-36 289,-36"/>
<text text-anchor="middle" x="274" y="-15.5" font-family="sans" font-size="10.00">targets</text>
</g>
<!-- 1 -->
<g id="node2" class="node">
<title>1</title>
<path fill="none" stroke="#d88d56" stroke-width="2" stroke-dasharray="5,2" d="M149,-324C149,-324 91,-324 91,-324 85,-324 79,-318 79,-312 79,-312 79,-300 79,-300 79,-294 85,-288 91,-288 91,-288 149,-288 149,-288 155,-288 161,-294 161,-300 161,-300 161,-312 161,-312 161,-318 155,-324 149,-324"/>
<text text-anchor="middle" x="120" y="-303.5" font-family="sans" font-size="10.00">get_all_archive</text>
</g>
<!-- 1&#45;&gt;0 -->
<g id="edge1" class="edge">
<title>1&#45;&gt;0</title>
<path fill="none" stroke="grey" stroke-width="2" d="M120.88,-287.79C123.82,-246.25 136.48,-138.98 190,-72 202.62,-56.2 221.31,-43.75 237.86,-34.9"/>
<polygon fill="grey" stroke="grey" stroke-width="2" points="239.46,-38.02 246.78,-30.36 236.28,-31.78 239.46,-38.02"/>
</g>
<!-- 2 -->
<g id="node3" class="node">
<title>2</title>
<path fill="none" stroke="#bed856" stroke-width="2" stroke-dasharray="5,2" d="M80,-180C80,-180 12,-180 12,-180 6,-180 0,-174 0,-168 0,-168 0,-156 0,-156 0,-150 6,-144 12,-144 12,-144 80,-144 80,-144 86,-144 92,-150 92,-156 92,-156 92,-168 92,-168 92,-174 86,-180 80,-180"/>
<text text-anchor="middle" x="46" y="-159.5" font-family="sans" font-size="10.00">get_all_filenames</text>
</g>
<!-- 1&#45;&gt;2 -->
<g id="edge10" class="edge">
<title>1&#45;&gt;2</title>
<path fill="none" stroke="grey" stroke-width="2" d="M111.07,-287.87C98.3,-263.35 74.68,-218.03 59.68,-189.26"/>
<polygon fill="grey" stroke="grey" stroke-width="2" points="62.68,-187.44 54.96,-180.19 56.48,-190.67 62.68,-187.44"/>
</g>
<!-- 5 -->
<g id="node6" class="node">
<title>5</title>
<path fill="none" stroke="#56d88a" stroke-width="2" stroke-dasharray="5,2" d="M242,-252C242,-252 160,-252 160,-252 154,-252 148,-246 148,-240 148,-240 148,-228 148,-228 148,-222 154,-216 160,-216 160,-216 242,-216 242,-216 248,-216 254,-222 254,-228 254,-228 254,-240 254,-240 254,-246 248,-252 242,-252"/>
<text text-anchor="middle" x="201" y="-231.5" font-family="sans" font-size="10.00">summarize_dly_files</text>
</g>
<!-- 1&#45;&gt;5 -->
<g id="edge11" class="edge">
<title>1&#45;&gt;5</title>
<path fill="none" stroke="grey" stroke-width="2" d="M140.02,-287.7C150.13,-278.97 162.54,-268.24 173.52,-258.75"/>
<polygon fill="grey" stroke="grey" stroke-width="2" points="175.93,-261.29 181.21,-252.1 171.35,-255.99 175.93,-261.29"/>
</g>
<!-- 2&#45;&gt;0 -->
<g id="edge2" class="edge">
<title>2&#45;&gt;0</title>
<path fill="none" stroke="grey" stroke-width="2" d="M53.34,-143.68C62.7,-123.6 80.77,-90.85 106,-72 144.91,-42.93 200.21,-29.53 236.58,-23.55"/>
<polygon fill="grey" stroke="grey" stroke-width="2" points="237.41,-26.96 246.76,-21.98 236.34,-20.04 237.41,-26.96"/>
</g>
<!-- 3 -->
<g id="node4" class="node">
<title>3</title>
<path fill="none" stroke="#56c1d8" stroke-width="2" stroke-dasharray="5,2" d="M505.5,-324C505.5,-324 454.5,-324 454.5,-324 448.5,-324 442.5,-318 442.5,-312 442.5,-312 442.5,-300 442.5,-300 442.5,-294 448.5,-288 454.5,-288 454.5,-288 505.5,-288 505.5,-288 511.5,-288 517.5,-294 517.5,-300 517.5,-300 517.5,-312 517.5,-312 517.5,-318 511.5,-324 505.5,-324"/>
<text text-anchor="middle" x="480" y="-303.5" font-family="sans" font-size="10.00">get_inventory</text>
</g>
<!-- 3&#45;&gt;0 -->
<g id="edge3" class="edge">
<title>3&#45;&gt;0</title>
<path fill="none" stroke="grey" stroke-width="2" d="M487.89,-287.75C492.11,-277.58 496.86,-264.33 499,-252 512.97,-171.62 519.86,-130.5 463,-72 423.04,-30.89 353.97,-20.92 311.32,-18.92"/>
<polygon fill="grey" stroke="grey" stroke-width="2" points="311.19,-15.41 301.07,-18.57 310.95,-22.41 311.19,-15.41"/>
</g>
<!-- 7 -->
<g id="node8" class="node">
<title>7</title>
<path fill="none" stroke="#88d856" stroke-width="2" stroke-dasharray="5,2" d="M478,-252C478,-252 406,-252 406,-252 400,-252 394,-246 394,-240 394,-240 394,-228 394,-228 394,-222 400,-216 406,-216 406,-216 478,-216 478,-216 484,-216 490,-222 490,-228 490,-228 490,-240 490,-240 490,-246 484,-252 478,-252"/>
<text text-anchor="middle" x="442" y="-231.5" font-family="sans" font-size="10.00">get_regions_years</text>
</g>
<!-- 3&#45;&gt;7 -->
<g id="edge13" class="edge">
<title>3&#45;&gt;7</title>
<path fill="none" stroke="grey" stroke-width="2" d="M470.61,-287.7C466.24,-279.64 460.94,-269.89 456.1,-260.98"/>
<polygon fill="grey" stroke="grey" stroke-width="2" points="459.13,-259.22 451.29,-252.1 452.98,-262.56 459.13,-259.22"/>
</g>
<!-- 4 -->
<g id="node5" class="node">
<title>4</title>
<path fill="none" stroke="#59d856" stroke-width="2" stroke-dasharray="5,2" d="M277.5,-180C277.5,-180 212.5,-180 212.5,-180 206.5,-180 200.5,-174 200.5,-168 200.5,-168 200.5,-156 200.5,-156 200.5,-150 206.5,-144 212.5,-144 212.5,-144 277.5,-144 277.5,-144 283.5,-144 289.5,-150 289.5,-156 289.5,-156 289.5,-168 289.5,-168 289.5,-174 283.5,-180 277.5,-180"/>
<text text-anchor="middle" x="245" y="-159.5" font-family="sans" font-size="10.00">get_station_data</text>
</g>
<!-- 4&#45;&gt;0 -->
<g id="edge4" class="edge">
<title>4&#45;&gt;0</title>
<path fill="none" stroke="grey" stroke-width="2" d="M231.71,-143.91C219.3,-125.72 204.18,-96.27 215,-72 220.17,-60.41 229.27,-50.29 238.79,-42.09"/>
<polygon fill="grey" stroke="grey" stroke-width="2" points="241.2,-44.65 246.82,-35.66 236.83,-39.18 241.2,-44.65"/>
</g>
<!-- 6 -->
<g id="node7" class="node">
<title>6</title>
<path fill="none" stroke="#d85656" stroke-width="2" stroke-dasharray="5,2" d="M311.5,-108C311.5,-108 236.5,-108 236.5,-108 230.5,-108 224.5,-102 224.5,-96 224.5,-96 224.5,-84 224.5,-84 224.5,-78 230.5,-72 236.5,-72 236.5,-72 311.5,-72 311.5,-72 317.5,-72 323.5,-78 323.5,-84 323.5,-84 323.5,-96 323.5,-96 323.5,-102 317.5,-108 311.5,-108"/>
<text text-anchor="middle" x="274" y="-87.5" font-family="sans" font-size="10.00">aggregate_stations</text>
</g>
<!-- 4&#45;&gt;6 -->
<g id="edge12" class="edge">
<title>4&#45;&gt;6</title>
<path fill="none" stroke="grey" stroke-width="2" d="M252.17,-143.7C255.43,-135.81 259.37,-126.3 263,-117.55"/>
<polygon fill="grey" stroke="grey" stroke-width="2" points="266.32,-118.68 266.91,-108.1 259.85,-116 266.32,-118.68"/>
</g>
<!-- 5&#45;&gt;0 -->
<g id="edge5" class="edge">
<title>5&#45;&gt;0</title>
<path fill="none" stroke="grey" stroke-width="2" d="M196.61,-215.87C189.62,-184.57 179.48,-117.19 208,-72 215.76,-59.7 227.39,-48.99 238.73,-40.48"/>
<polygon fill="grey" stroke="grey" stroke-width="2" points="240.76,-43.33 246.88,-34.67 236.7,-37.62 240.76,-43.33"/>
</g>
<!-- 8 -->
<g id="node9" class="node">
<title>8</title>
<path fill="none" stroke="#568ad8" stroke-width="2" stroke-dasharray="5,2" d="M432.5,-180C432.5,-180 339.5,-180 339.5,-180 333.5,-180 327.5,-174 327.5,-168 327.5,-168 327.5,-156 327.5,-156 327.5,-150 333.5,-144 339.5,-144 339.5,-144 432.5,-144 432.5,-144 438.5,-144 444.5,-150 444.5,-156 444.5,-156 444.5,-168 444.5,-168 444.5,-174 438.5,-180 432.5,-180"/>
<text text-anchor="middle" x="386" y="-159.5" font-family="sans" font-size="10.00">plot_drought_by_region</text>
</g>
<!-- 5&#45;&gt;8 -->
<g id="edge14" class="edge">
<title>5&#45;&gt;8</title>
<path fill="none" stroke="grey" stroke-width="2" d="M246.26,-215.88C272,-206.14 304.41,-193.87 331.54,-183.61"/>
<polygon fill="grey" stroke="grey" stroke-width="2" points="332.78,-186.88 340.89,-180.07 330.3,-180.33 332.78,-186.88"/>
</g>
<!-- 6&#45;&gt;0 -->
<g id="edge6" class="edge">
<title>6&#45;&gt;0</title>
<path fill="none" stroke="grey" stroke-width="2" d="M274,-71.7C274,-63.98 274,-54.71 274,-46.11"/>
<polygon fill="grey" stroke="grey" stroke-width="2" points="277.5,-46.1 274,-36.1 270.5,-46.1 277.5,-46.1"/>
</g>
<!-- 7&#45;&gt;0 -->
<g id="edge7" class="edge">
<title>7&#45;&gt;0</title>
<path fill="none" stroke="grey" stroke-width="2" d="M448.16,-215.92C458.65,-183.47 475.58,-112.55 440,-72 407.63,-35.1 349.61,-23.69 311.46,-20.27"/>
<polygon fill="grey" stroke="grey" stroke-width="2" points="311.5,-16.77 301.26,-19.51 310.97,-23.75 311.5,-16.77"/>
</g>
<!-- 7&#45;&gt;8 -->
<g id="edge15" class="edge">
<title>7&#45;&gt;8</title>
<path fill="none" stroke="grey" stroke-width="2" d="M428.16,-215.7C421.51,-207.39 413.42,-197.28 406.11,-188.14"/>
<polygon fill="grey" stroke="grey" stroke-width="2" points="408.66,-185.73 399.68,-180.1 403.2,-190.1 408.66,-185.73"/>
</g>
<!-- 8&#45;&gt;0 -->
<g id="edge8" class="edge">
<title>8&#45;&gt;0</title>
<path fill="none" stroke="grey" stroke-width="2" d="M402.74,-143.81C418.95,-125.01 438.92,-94.56 423,-72 397.97,-36.52 347,-24.65 311.7,-20.76"/>
<polygon fill="grey" stroke="grey" stroke-width="2" points="311.57,-17.23 301.29,-19.79 310.92,-24.2 311.57,-17.23"/>
</g>
<!-- 9 -->
<g id="node10" class="node">
<title>9</title>
<path fill="none" stroke="#d8bc56" stroke-width="2" d="M402,-108C402,-108 354,-108 354,-108 348,-108 342,-102 342,-96 342,-96 342,-84 342,-84 342,-78 348,-72 354,-72 354,-72 402,-72 402,-72 408,-72 414,-78 414,-84 414,-84 414,-96 414,-96 414,-102 408,-108 402,-108"/>
<text text-anchor="middle" x="378" y="-87.5" font-family="sans" font-size="10.00">render_index</text>
</g>
<!-- 8&#45;&gt;9 -->
<g id="edge16" class="edge">
<title>8&#45;&gt;9</title>
<path fill="none" stroke="grey" stroke-width="2" d="M384.02,-143.7C383.14,-135.98 382.08,-126.71 381.1,-118.11"/>
<polygon fill="grey" stroke="grey" stroke-width="2" points="384.57,-117.64 379.95,-108.1 377.61,-118.44 384.57,-117.64"/>
</g>
<!-- 9&#45;&gt;0 -->
<g id="edge9" class="edge">
<title>9&#45;&gt;0</title>
<path fill="none" stroke="grey" stroke-width="2" d="M352.56,-71.88C339.21,-62.89 322.68,-51.76 308.22,-42.03"/>
<polygon fill="grey" stroke="grey" stroke-width="2" points="309.79,-38.87 299.54,-36.19 305.88,-44.68 309.79,-38.87"/>
</g>
</g>
</svg>
