<?xml version="1.0" encoding="UTF-8" standalone="no"?>
<!DOCTYPE svg PUBLIC "-//W3C//DTD SVG 1.1//EN"
 "http://www.w3.org/Graphics/SVG/1.1/DTD/svg11.dtd">
<!-- Generated by graphviz version 6.0.1 (0)
 -->
<!-- Title: snakemake_dag Pages: 1 -->
<svg width="176pt" height="404pt"
 viewBox="0.00 0.00 176.00 404.00" xmlns="http://www.w3.org/2000/svg" xmlns:xlink="http://www.w3.org/1999/xlink">
<g id="graph0" class="graph" transform="scale(1 1) rotate(0) translate(4 400)">
<title>snakemake_dag</title>
<polygon fill="white" stroke="none" points="-4,4 -4,-400 172,-400 172,4 -4,4"/>
<!-- 0 -->
<g id="node1" class="node">
<title>0</title>
<path fill="none" stroke="#d85656" stroke-width="2" d="M108.5,-36C108.5,-36 78.5,-36 78.5,-36 72.5,-36 66.5,-30 66.5,-24 66.5,-24 66.5,-12 66.5,-12 66.5,-6 72.5,0 78.5,0 78.5,0 108.5,0 108.5,0 114.5,0 120.5,-6 120.5,-12 120.5,-12 120.5,-24 120.5,-24 120.5,-30 114.5,-36 108.5,-36"/>
<text text-anchor="middle" x="93.5" y="-15.5" font-family="sans" font-size="10.00">all</text>
</g>
<!-- 1 -->
<g id="node2" class="node">
<title>1</title>
<path fill="none" stroke="#56d873" stroke-width="2" d="M108.5,-108C108.5,-108 78.5,-108 78.5,-108 72.5,-108 66.5,-102 66.5,-96 66.5,-96 66.5,-84 66.5,-84 66.5,-78 72.5,-72 78.5,-72 78.5,-72 108.5,-72 108.5,-72 114.5,-72 120.5,-78 120.5,-84 120.5,-84 120.5,-96 120.5,-96 120.5,-102 114.5,-108 108.5,-108"/>
<text text-anchor="middle" x="93.5" y="-87.5" font-family="sans" font-size="10.00">gemma</text>
</g>
<!-- 1&#45;&gt;0 -->
<g id="edge1" class="edge">
<title>1&#45;&gt;0</title>
<path fill="none" stroke="grey" stroke-width="2" d="M93.5,-71.7C93.5,-63.98 93.5,-54.71 93.5,-46.11"/>
<polygon fill="grey" stroke="grey" stroke-width="2" points="97,-46.1 93.5,-36.1 90,-46.1 97,-46.1"/>
</g>
<!-- 2 -->
<g id="node3" class="node">
<title>2</title>
<path fill="none" stroke="#d88d56" stroke-width="2" d="M81,-252C81,-252 12,-252 12,-252 6,-252 0,-246 0,-240 0,-240 0,-228 0,-228 0,-222 6,-216 12,-216 12,-216 81,-216 81,-216 87,-216 93,-222 93,-228 93,-228 93,-240 93,-240 93,-246 87,-252 81,-252"/>
<text text-anchor="middle" x="46.5" y="-231.5" font-family="sans" font-size="10.00">setup_plink_traits</text>
</g>
<!-- 2&#45;&gt;1 -->
<g id="edge3" class="edge">
<title>2&#45;&gt;1</title>
<path fill="none" stroke="grey" stroke-width="2" d="M38.25,-215.82C30.6,-197.3 21.86,-167.34 32.5,-144 38.06,-131.81 47.95,-121.34 58.18,-113.01"/>
<polygon fill="grey" stroke="grey" stroke-width="2" points="60.53,-115.62 66.38,-106.79 56.29,-110.04 60.53,-115.62"/>
</g>
<!-- 6 -->
<g id="node7" class="node">
<title>6</title>
<path fill="none" stroke="#5692d8" stroke-width="2" d="M133.5,-180C133.5,-180 53.5,-180 53.5,-180 47.5,-180 41.5,-174 41.5,-168 41.5,-168 41.5,-156 41.5,-156 41.5,-150 47.5,-144 53.5,-144 53.5,-144 133.5,-144 133.5,-144 139.5,-144 145.5,-150 145.5,-156 145.5,-156 145.5,-168 145.5,-168 145.5,-174 139.5,-180 133.5,-180"/>
<text text-anchor="middle" x="93.5" y="-159.5" font-family="sans" font-size="10.00">gemma_relatedness</text>
</g>
<!-- 2&#45;&gt;6 -->
<g id="edge8" class="edge">
<title>2&#45;&gt;6</title>
<path fill="none" stroke="grey" stroke-width="2" d="M58.12,-215.7C63.64,-207.47 70.35,-197.48 76.43,-188.42"/>
<polygon fill="grey" stroke="grey" stroke-width="2" points="79.35,-190.36 82.02,-180.1 73.54,-186.46 79.35,-190.36"/>
</g>
<!-- 3 -->
<g id="node4" class="node">
<title>3</title>
<path fill="none" stroke="#56c9d8" stroke-width="2" d="M107.5,-324C107.5,-324 77.5,-324 77.5,-324 71.5,-324 65.5,-318 65.5,-312 65.5,-312 65.5,-300 65.5,-300 65.5,-294 71.5,-288 77.5,-288 77.5,-288 107.5,-288 107.5,-288 113.5,-288 119.5,-294 119.5,-300 119.5,-300 119.5,-312 119.5,-312 119.5,-318 113.5,-324 107.5,-324"/>
<text text-anchor="middle" x="92.5" y="-303.5" font-family="sans" font-size="10.00">plink</text>
</g>
<!-- 3&#45;&gt;2 -->
<g id="edge5" class="edge">
<title>3&#45;&gt;2</title>
<path fill="none" stroke="grey" stroke-width="2" d="M81.13,-287.7C75.78,-279.56 69.3,-269.69 63.39,-260.7"/>
<polygon fill="grey" stroke="grey" stroke-width="2" points="66.16,-258.54 57.74,-252.1 60.31,-262.38 66.16,-258.54"/>
</g>
<!-- 5 -->
<g id="node6" class="node">
<title>5</title>
<path fill="none" stroke="#70d856" stroke-width="2" d="M156,-252C156,-252 123,-252 123,-252 117,-252 111,-246 111,-240 111,-240 111,-228 111,-228 111,-222 117,-216 123,-216 123,-216 156,-216 156,-216 162,-216 168,-222 168,-228 168,-228 168,-240 168,-240 168,-246 162,-252 156,-252"/>
<text text-anchor="middle" x="139.5" y="-231.5" font-family="sans" font-size="10.00">link_plink</text>
</g>
<!-- 3&#45;&gt;5 -->
<g id="edge7" class="edge">
<title>3&#45;&gt;5</title>
<path fill="none" stroke="grey" stroke-width="2" d="M104.12,-287.7C109.64,-279.47 116.35,-269.48 122.43,-260.42"/>
<polygon fill="grey" stroke="grey" stroke-width="2" points="125.35,-262.36 128.02,-252.1 119.54,-258.46 125.35,-262.36"/>
</g>
<!-- 4 -->
<g id="node5" class="node">
<title>4</title>
<path fill="none" stroke="#d8cb56" stroke-width="2" d="M116,-396C116,-396 69,-396 69,-396 63,-396 57,-390 57,-384 57,-384 57,-372 57,-372 57,-366 63,-360 69,-360 69,-360 116,-360 116,-360 122,-360 128,-366 128,-372 128,-372 128,-384 128,-384 128,-390 122,-396 116,-396"/>
<text text-anchor="middle" x="92.5" y="-375.5" font-family="sans" font-size="10.00">link_variants</text>
</g>
<!-- 4&#45;&gt;3 -->
<g id="edge6" class="edge">
<title>4&#45;&gt;3</title>
<path fill="none" stroke="grey" stroke-width="2" d="M92.5,-359.7C92.5,-351.98 92.5,-342.71 92.5,-334.11"/>
<polygon fill="grey" stroke="grey" stroke-width="2" points="96,-334.1 92.5,-324.1 89,-334.1 96,-334.1"/>
</g>
<!-- 5&#45;&gt;1 -->
<g id="edge4" class="edge">
<title>5&#45;&gt;1</title>
<path fill="none" stroke="grey" stroke-width="2" d="M148.05,-215.84C156.01,-197.33 165.16,-167.38 154.5,-144 148.94,-131.81 139.05,-121.34 128.82,-113.01"/>
<polygon fill="grey" stroke="grey" stroke-width="2" points="130.71,-110.04 120.62,-106.79 126.47,-115.62 130.71,-110.04"/>
</g>
<!-- 5&#45;&gt;6 -->
<g id="edge9" class="edge">
<title>5&#45;&gt;6</title>
<path fill="none" stroke="grey" stroke-width="2" d="M128.13,-215.7C122.78,-207.56 116.3,-197.69 110.39,-188.7"/>
<polygon fill="grey" stroke="grey" stroke-width="2" points="113.16,-186.54 104.74,-180.1 107.31,-190.38 113.16,-186.54"/>
</g>
<!-- 6&#45;&gt;1 -->
<g id="edge2" class="edge">
<title>6&#45;&gt;1</title>
<path fill="none" stroke="grey" stroke-width="2" d="M93.5,-143.7C93.5,-135.98 93.5,-126.71 93.5,-118.11"/>
<polygon fill="grey" stroke="grey" stroke-width="2" points="97,-118.1 93.5,-108.1 90,-118.1 97,-118.1"/>
</g>
</g>
</svg>
