<?xml version="1.0" encoding="UTF-8" standalone="no"?>
<!DOCTYPE svg PUBLIC "-//W3C//DTD SVG 1.1//EN"
 "http://www.w3.org/Graphics/SVG/1.1/DTD/svg11.dtd">
<!-- Generated by graphviz version 6.0.1 (0)
 -->
<!-- Title: snakemake_dag Pages: 1 -->
<svg width="362pt" height="404pt"
 viewBox="0.00 0.00 362.00 404.00" xmlns="http://www.w3.org/2000/svg" xmlns:xlink="http://www.w3.org/1999/xlink">
<g id="graph0" class="graph" transform="scale(1 1) rotate(0) translate(4 400)">
<title>snakemake_dag</title>
<polygon fill="white" stroke="none" points="-4,4 -4,-400 358,-400 358,4 -4,4"/>
<!-- 0 -->
<g id="node1" class="node">
<title>0</title>
<path fill="none" stroke="#d88d56" stroke-width="2" d="M189.5,-36C189.5,-36 159.5,-36 159.5,-36 153.5,-36 147.5,-30 147.5,-24 147.5,-24 147.5,-12 147.5,-12 147.5,-6 153.5,0 159.5,0 159.5,0 189.5,0 189.5,0 195.5,0 201.5,-6 201.5,-12 201.5,-12 201.5,-24 201.5,-24 201.5,-30 195.5,-36 189.5,-36"/>
<text text-anchor="middle" x="174.5" y="-15.5" font-family="sans" font-size="10.00">all</text>
</g>
<!-- 1 -->
<g id="node2" class="node">
<title>1</title>
<path fill="none" stroke="#d8cb56" stroke-width="2" d="M153.5,-108C153.5,-108 123.5,-108 123.5,-108 117.5,-108 111.5,-102 111.5,-96 111.5,-96 111.5,-84 111.5,-84 111.5,-78 117.5,-72 123.5,-72 123.5,-72 153.5,-72 153.5,-72 159.5,-72 165.5,-78 165.5,-84 165.5,-84 165.5,-96 165.5,-96 165.5,-102 159.5,-108 153.5,-108"/>
<text text-anchor="middle" x="138.5" y="-87.5" font-family="sans" font-size="10.00">gemma</text>
</g>
<!-- 1&#45;&gt;0 -->
<g id="edge1" class="edge">
<title>1&#45;&gt;0</title>
<path fill="none" stroke="grey" stroke-width="2" d="M147.4,-71.7C151.5,-63.73 156.45,-54.1 160.99,-45.26"/>
<polygon fill="grey" stroke="grey" stroke-width="2" points="164.24,-46.6 165.7,-36.1 158.02,-43.4 164.24,-46.6"/>
</g>
<!-- 2 -->
<g id="node3" class="node">
<title>2</title>
<path fill="none" stroke="#70d856" stroke-width="2" d="M81,-252C81,-252 12,-252 12,-252 6,-252 0,-246 0,-240 0,-240 0,-228 0,-228 0,-222 6,-216 12,-216 12,-216 81,-216 81,-216 87,-216 93,-222 93,-228 93,-228 93,-240 93,-240 93,-246 87,-252 81,-252"/>
<text text-anchor="middle" x="46.5" y="-237" font-family="sans" font-size="10.00">setup_plink_traits</text>
<text text-anchor="middle" x="46.5" y="-226" font-family="sans" font-size="10.00">trait: a</text>
</g>
<!-- 2&#45;&gt;1 -->
<g id="edge3" class="edge">
<title>2&#45;&gt;1</title>
<path fill="none" stroke="grey" stroke-width="2" d="M35.61,-215.97C25.02,-197.04 12.44,-166.21 26.5,-144 42.85,-118.17 75.57,-104.68 101.44,-97.8"/>
<polygon fill="grey" stroke="grey" stroke-width="2" points="102.44,-101.16 111.33,-95.39 100.79,-94.35 102.44,-101.16"/>
</g>
<!-- 6 -->
<g id="node7" class="node">
<title>6</title>
<path fill="none" stroke="#56d8a9" stroke-width="2" d="M127.5,-180C127.5,-180 47.5,-180 47.5,-180 41.5,-180 35.5,-174 35.5,-168 35.5,-168 35.5,-156 35.5,-156 35.5,-150 41.5,-144 47.5,-144 47.5,-144 127.5,-144 127.5,-144 133.5,-144 139.5,-150 139.5,-156 139.5,-156 139.5,-168 139.5,-168 139.5,-174 133.5,-180 127.5,-180"/>
<text text-anchor="middle" x="87.5" y="-159.5" font-family="sans" font-size="10.00">gemma_relatedness</text>
</g>
<!-- 2&#45;&gt;6 -->
<g id="edge9" class="edge">
<title>2&#45;&gt;6</title>
<path fill="none" stroke="grey" stroke-width="2" d="M56.63,-215.7C61.35,-207.64 67.06,-197.89 72.28,-188.98"/>
<polygon fill="grey" stroke="grey" stroke-width="2" points="75.45,-190.5 77.48,-180.1 69.41,-186.96 75.45,-190.5"/>
</g>
<!-- 3 -->
<g id="node4" class="node">
<title>3</title>
<path fill="none" stroke="#56c9d8" stroke-width="2" d="M200.5,-324C200.5,-324 170.5,-324 170.5,-324 164.5,-324 158.5,-318 158.5,-312 158.5,-312 158.5,-300 158.5,-300 158.5,-294 164.5,-288 170.5,-288 170.5,-288 200.5,-288 200.5,-288 206.5,-288 212.5,-294 212.5,-300 212.5,-300 212.5,-312 212.5,-312 212.5,-318 206.5,-324 200.5,-324"/>
<text text-anchor="middle" x="185.5" y="-303.5" font-family="sans" font-size="10.00">plink</text>
</g>
<!-- 3&#45;&gt;2 -->
<g id="edge6" class="edge">
<title>3&#45;&gt;2</title>
<path fill="none" stroke="grey" stroke-width="2" d="M158.37,-291.34C138.79,-281.48 111.95,-267.96 89.47,-256.64"/>
<polygon fill="grey" stroke="grey" stroke-width="2" points="90.96,-253.47 80.45,-252.1 87.81,-259.72 90.96,-253.47"/>
</g>
<!-- 5 -->
<g id="node6" class="node">
<title>5</title>
<path fill="none" stroke="#d85656" stroke-width="2" d="M156,-252C156,-252 123,-252 123,-252 117,-252 111,-246 111,-240 111,-240 111,-228 111,-228 111,-222 117,-216 123,-216 123,-216 156,-216 156,-216 162,-216 168,-222 168,-228 168,-228 168,-240 168,-240 168,-246 162,-252 156,-252"/>
<text text-anchor="middle" x="139.5" y="-237" font-family="sans" font-size="10.00">link_plink</text>
<text text-anchor="middle" x="139.5" y="-226" font-family="sans" font-size="10.00">trait: a</text>
</g>
<!-- 3&#45;&gt;5 -->
<g id="edge8" class="edge">
<title>3&#45;&gt;5</title>
<path fill="none" stroke="grey" stroke-width="2" d="M174.13,-287.7C168.78,-279.56 162.3,-269.69 156.39,-260.7"/>
<polygon fill="grey" stroke="grey" stroke-width="2" points="159.16,-258.54 150.74,-252.1 153.31,-262.38 159.16,-258.54"/>
</g>
<!-- 8 -->
<g id="node9" class="node">
<title>8</title>
<path fill="none" stroke="#70d856" stroke-width="2" d="M267,-252C267,-252 198,-252 198,-252 192,-252 186,-246 186,-240 186,-240 186,-228 186,-228 186,-222 192,-216 198,-216 198,-216 267,-216 267,-216 273,-216 279,-222 279,-228 279,-228 279,-240 279,-240 279,-246 273,-252 267,-252"/>
<text text-anchor="middle" x="232.5" y="-237" font-family="sans" font-size="10.00">setup_plink_traits</text>
<text text-anchor="middle" x="232.5" y="-226" font-family="sans" font-size="10.00">trait: b</text>
</g>
<!-- 3&#45;&gt;8 -->
<g id="edge14" class="edge">
<title>3&#45;&gt;8</title>
<path fill="none" stroke="grey" stroke-width="2" d="M197.12,-287.7C202.64,-279.47 209.35,-269.48 215.43,-260.42"/>
<polygon fill="grey" stroke="grey" stroke-width="2" points="218.35,-262.36 221.02,-252.1 212.54,-258.46 218.35,-262.36"/>
</g>
<!-- 9 -->
<g id="node10" class="node">
<title>9</title>
<path fill="none" stroke="#d85656" stroke-width="2" d="M342,-252C342,-252 309,-252 309,-252 303,-252 297,-246 297,-240 297,-240 297,-228 297,-228 297,-222 303,-216 309,-216 309,-216 342,-216 342,-216 348,-216 354,-222 354,-228 354,-228 354,-240 354,-240 354,-246 348,-252 342,-252"/>
<text text-anchor="middle" x="325.5" y="-237" font-family="sans" font-size="10.00">link_plink</text>
<text text-anchor="middle" x="325.5" y="-226" font-family="sans" font-size="10.00">trait: b</text>
</g>
<!-- 3&#45;&gt;9 -->
<g id="edge15" class="edge">
<title>3&#45;&gt;9</title>
<path fill="none" stroke="grey" stroke-width="2" d="M212.83,-291.34C234.18,-280.66 264.11,-265.7 287.75,-253.87"/>
<polygon fill="grey" stroke="grey" stroke-width="2" points="289.42,-256.95 296.8,-249.35 286.29,-250.69 289.42,-256.95"/>
</g>
<!-- 4 -->
<g id="node5" class="node">
<title>4</title>
<path fill="none" stroke="#5692d8" stroke-width="2" d="M209,-396C209,-396 162,-396 162,-396 156,-396 150,-390 150,-384 150,-384 150,-372 150,-372 150,-366 156,-360 162,-360 162,-360 209,-360 209,-360 215,-360 221,-366 221,-372 221,-372 221,-384 221,-384 221,-390 215,-396 209,-396"/>
<text text-anchor="middle" x="185.5" y="-375.5" font-family="sans" font-size="10.00">link_variants</text>
</g>
<!-- 4&#45;&gt;3 -->
<g id="edge7" class="edge">
<title>4&#45;&gt;3</title>
<path fill="none" stroke="grey" stroke-width="2" d="M185.5,-359.7C185.5,-351.98 185.5,-342.71 185.5,-334.11"/>
<polygon fill="grey" stroke="grey" stroke-width="2" points="189,-334.1 185.5,-324.1 182,-334.1 189,-334.1"/>
</g>
<!-- 5&#45;&gt;1 -->
<g id="edge4" class="edge">
<title>5&#45;&gt;1</title>
<path fill="none" stroke="grey" stroke-width="2" d="M143.15,-215.91C145.18,-205.57 147.48,-192.09 148.5,-180 149.84,-164.06 149.99,-159.93 148.5,-144 147.7,-135.48 146.2,-126.28 144.6,-117.99"/>
<polygon fill="grey" stroke="grey" stroke-width="2" points="148,-117.16 142.56,-108.07 141.14,-118.57 148,-117.16"/>
</g>
<!-- 5&#45;&gt;6 -->
<g id="edge10" class="edge">
<title>5&#45;&gt;6</title>
<path fill="none" stroke="grey" stroke-width="2" d="M126.65,-215.7C120.47,-207.39 112.96,-197.28 106.18,-188.14"/>
<polygon fill="grey" stroke="grey" stroke-width="2" points="108.98,-186.04 100.21,-180.1 103.36,-190.22 108.98,-186.04"/>
</g>
<!-- 6&#45;&gt;1 -->
<g id="edge5" class="edge">
<title>6&#45;&gt;1</title>
<path fill="none" stroke="grey" stroke-width="2" d="M100.11,-143.7C106.1,-135.47 113.38,-125.48 119.98,-116.42"/>
<polygon fill="grey" stroke="grey" stroke-width="2" points="122.98,-118.25 126.04,-108.1 117.32,-114.13 122.98,-118.25"/>
</g>
<!-- 7 -->
<g id="node8" class="node">
<title>7</title>
<path fill="none" stroke="#d8cb56" stroke-width="2" d="M248.5,-108C248.5,-108 218.5,-108 218.5,-108 212.5,-108 206.5,-102 206.5,-96 206.5,-96 206.5,-84 206.5,-84 206.5,-78 212.5,-72 218.5,-72 218.5,-72 248.5,-72 248.5,-72 254.5,-72 260.5,-78 260.5,-84 260.5,-84 260.5,-96 260.5,-96 260.5,-102 254.5,-108 248.5,-108"/>
<text text-anchor="middle" x="233.5" y="-87.5" font-family="sans" font-size="10.00">gemma</text>
</g>
<!-- 7&#45;&gt;0 -->
<g id="edge2" class="edge">
<title>7&#45;&gt;0</title>
<path fill="none" stroke="grey" stroke-width="2" d="M218.92,-71.7C211.84,-63.3 203.22,-53.07 195.45,-43.86"/>
<polygon fill="grey" stroke="grey" stroke-width="2" points="198.04,-41.49 188.92,-36.1 192.69,-46.01 198.04,-41.49"/>
</g>
<!-- 8&#45;&gt;7 -->
<g id="edge11" class="edge">
<title>8&#45;&gt;7</title>
<path fill="none" stroke="grey" stroke-width="2" d="M229.25,-215.89C227.45,-205.54 225.41,-192.06 224.5,-180 223.3,-164.04 223.16,-159.94 224.5,-144 225.22,-135.5 226.57,-126.31 228.01,-118.01"/>
<polygon fill="grey" stroke="grey" stroke-width="2" points="231.47,-118.56 229.85,-108.09 224.59,-117.29 231.47,-118.56"/>
</g>
<!-- 10 -->
<g id="node11" class="node">
<title>10</title>
<path fill="none" stroke="#56d8a9" stroke-width="2" d="M325.5,-180C325.5,-180 245.5,-180 245.5,-180 239.5,-180 233.5,-174 233.5,-168 233.5,-168 233.5,-156 233.5,-156 233.5,-150 239.5,-144 245.5,-144 245.5,-144 325.5,-144 325.5,-144 331.5,-144 337.5,-150 337.5,-156 337.5,-156 337.5,-168 337.5,-168 337.5,-174 331.5,-180 325.5,-180"/>
<text text-anchor="middle" x="285.5" y="-159.5" font-family="sans" font-size="10.00">gemma_relatedness</text>
</g>
<!-- 8&#45;&gt;10 -->
<g id="edge16" class="edge">
<title>8&#45;&gt;10</title>
<path fill="none" stroke="grey" stroke-width="2" d="M245.6,-215.7C251.89,-207.39 259.55,-197.28 266.46,-188.14"/>
<polygon fill="grey" stroke="grey" stroke-width="2" points="269.3,-190.19 272.55,-180.1 263.72,-185.96 269.3,-190.19"/>
</g>
<!-- 9&#45;&gt;7 -->
<g id="edge12" class="edge">
<title>9&#45;&gt;7</title>
<path fill="none" stroke="grey" stroke-width="2" d="M336.7,-215.98C347.61,-197.06 360.64,-166.24 346.5,-144 329.93,-117.93 296.77,-104.46 270.63,-97.64"/>
<polygon fill="grey" stroke="grey" stroke-width="2" points="271.19,-94.17 260.65,-95.26 269.57,-100.98 271.19,-94.17"/>
</g>
<!-- 9&#45;&gt;10 -->
<g id="edge17" class="edge">
<title>9&#45;&gt;10</title>
<path fill="none" stroke="grey" stroke-width="2" d="M315.61,-215.7C311.01,-207.64 305.44,-197.89 300.35,-188.98"/>
<polygon fill="grey" stroke="grey" stroke-width="2" points="303.27,-187.05 295.27,-180.1 297.2,-190.52 303.27,-187.05"/>
</g>
<!-- 10&#45;&gt;7 -->
<g id="edge13" class="edge">
<title>10&#45;&gt;7</title>
<path fill="none" stroke="grey" stroke-width="2" d="M272.65,-143.7C266.47,-135.39 258.96,-125.28 252.18,-116.14"/>
<polygon fill="grey" stroke="grey" stroke-width="2" points="254.98,-114.04 246.21,-108.1 249.36,-118.22 254.98,-114.04"/>
</g>
</g>
</svg>
