<?xml version="1.0" encoding="UTF-8" standalone="no"?>
<!DOCTYPE svg PUBLIC "-//W3C//DTD SVG 1.1//EN"
 "http://www.w3.org/Graphics/SVG/1.1/DTD/svg11.dtd">
<!-- Generated by graphviz version 6.0.1 (0)
 -->
<!-- Title: snakemake_dag Pages: 1 -->
<svg width="467pt" height="188pt"
 viewBox="0.00 0.00 466.96 188.00" xmlns="http://www.w3.org/2000/svg" xmlns:xlink="http://www.w3.org/1999/xlink">
<g id="graph0" class="graph" transform="scale(1 1) rotate(0) translate(4 184)">
<title>snakemake_dag</title>
<polygon fill="white" stroke="none" points="-4,4 -4,-184 462.96,-184 462.96,4 -4,4"/>
<!-- 0 -->
<g id="node1" class="node">
<title>0</title>
<path fill="none" stroke="#d85656" stroke-width="2" d="M201.96,-36C201.96,-36 171.96,-36 171.96,-36 165.96,-36 159.96,-30 159.96,-24 159.96,-24 159.96,-12 159.96,-12 159.96,-6 165.96,0 171.96,0 171.96,0 201.96,0 201.96,0 207.96,0 213.96,-6 213.96,-12 213.96,-12 213.96,-24 213.96,-24 213.96,-30 207.96,-36 201.96,-36"/>
<text text-anchor="middle" x="186.96" y="-15.5" font-family="sans" font-size="10.00">all</text>
</g>
<!-- 1 -->
<g id="node2" class="node">
<title>1</title>
<path fill="none" stroke="#d88d56" stroke-width="2" d="M68.46,-180C68.46,-180 33.46,-180 33.46,-180 27.46,-180 21.46,-174 21.46,-168 21.46,-168 21.46,-156 21.46,-156 21.46,-150 27.46,-144 33.46,-144 33.46,-144 68.46,-144 68.46,-144 74.46,-144 80.46,-150 80.46,-156 80.46,-156 80.46,-168 80.46,-168 80.46,-174 74.46,-180 68.46,-180"/>
<text text-anchor="middle" x="50.96" y="-159.5" font-family="sans" font-size="10.00">get_reads</text>
</g>
<!-- 1&#45;&gt;0 -->
<g id="edge1" class="edge">
<title>1&#45;&gt;0</title>
<path fill="none" stroke="grey" stroke-width="2" d="M31.45,-143.92C12.48,-125.23 -11.17,-94.86 5.96,-72 23.2,-48.99 101.97,-32.61 149.73,-24.59"/>
<polygon fill="grey" stroke="grey" stroke-width="2" points="150.4,-28.03 159.71,-22.96 149.27,-21.12 150.4,-28.03"/>
</g>
<!-- 6 -->
<g id="node7" class="node">
<title>6</title>
<path fill="none" stroke="#56d8a9" stroke-width="2" d="M74.46,-108C74.46,-108 27.46,-108 27.46,-108 21.46,-108 15.46,-102 15.46,-96 15.46,-96 15.46,-84 15.46,-84 15.46,-78 21.46,-72 27.46,-72 27.46,-72 74.46,-72 74.46,-72 80.46,-72 86.46,-78 86.46,-84 86.46,-84 86.46,-96 86.46,-96 86.46,-102 80.46,-108 74.46,-108"/>
<text text-anchor="middle" x="50.96" y="-87.5" font-family="sans" font-size="10.00">trimmomatic</text>
</g>
<!-- 1&#45;&gt;6 -->
<g id="edge9" class="edge">
<title>1&#45;&gt;6</title>
<path fill="none" stroke="grey" stroke-width="2" d="M50.96,-143.7C50.96,-135.98 50.96,-126.71 50.96,-118.11"/>
<polygon fill="grey" stroke="grey" stroke-width="2" points="54.46,-118.1 50.96,-108.1 47.46,-118.1 54.46,-118.1"/>
</g>
<!-- 7 -->
<g id="node8" class="node">
<title>7</title>
<path fill="none" stroke="#5692d8" stroke-width="2" d="M146.96,-108C146.96,-108 116.96,-108 116.96,-108 110.96,-108 104.96,-102 104.96,-96 104.96,-96 104.96,-84 104.96,-84 104.96,-78 110.96,-72 116.96,-72 116.96,-72 146.96,-72 146.96,-72 152.96,-72 158.96,-78 158.96,-84 158.96,-84 158.96,-96 158.96,-96 158.96,-102 152.96,-108 146.96,-108"/>
<text text-anchor="middle" x="131.96" y="-87.5" font-family="sans" font-size="10.00">fastqc</text>
</g>
<!-- 1&#45;&gt;7 -->
<g id="edge10" class="edge">
<title>1&#45;&gt;7</title>
<path fill="none" stroke="grey" stroke-width="2" d="M70.99,-143.7C81.09,-134.97 93.5,-124.24 104.48,-114.75"/>
<polygon fill="grey" stroke="grey" stroke-width="2" points="106.89,-117.29 112.17,-108.1 102.32,-111.99 106.89,-117.29"/>
</g>
<!-- 2 -->
<g id="node3" class="node">
<title>2</title>
<path fill="none" stroke="#70d856" stroke-width="2" d="M243.96,-180C243.96,-180 197.96,-180 197.96,-180 191.96,-180 185.96,-174 185.96,-168 185.96,-168 185.96,-156 185.96,-156 185.96,-150 191.96,-144 197.96,-144 197.96,-144 243.96,-144 243.96,-144 249.96,-144 255.96,-150 255.96,-156 255.96,-156 255.96,-168 255.96,-168 255.96,-174 249.96,-180 243.96,-180"/>
<text text-anchor="middle" x="220.96" y="-159.5" font-family="sans" font-size="10.00">get_genome</text>
</g>
<!-- 2&#45;&gt;0 -->
<g id="edge2" class="edge">
<title>2&#45;&gt;0</title>
<path fill="none" stroke="grey" stroke-width="2" d="M215.81,-143.89C212.78,-133.54 208.96,-120.07 205.96,-108 200.86,-87.43 195.89,-63.97 192.31,-46.31"/>
<polygon fill="grey" stroke="grey" stroke-width="2" points="195.67,-45.26 190.28,-36.14 188.81,-46.63 195.67,-45.26"/>
</g>
<!-- 3 -->
<g id="node4" class="node">
<title>3</title>
<path fill="none" stroke="#afd856" stroke-width="2" d="M282.96,-108C282.96,-108 226.96,-108 226.96,-108 220.96,-108 214.96,-102 214.96,-96 214.96,-96 214.96,-84 214.96,-84 214.96,-78 220.96,-72 226.96,-72 226.96,-72 282.96,-72 282.96,-72 288.96,-72 294.96,-78 294.96,-84 294.96,-84 294.96,-96 294.96,-96 294.96,-102 288.96,-108 282.96,-108"/>
<text text-anchor="middle" x="254.96" y="-87.5" font-family="sans" font-size="10.00">index_genome</text>
</g>
<!-- 2&#45;&gt;3 -->
<g id="edge8" class="edge">
<title>2&#45;&gt;3</title>
<path fill="none" stroke="grey" stroke-width="2" d="M229.37,-143.7C233.24,-135.73 237.92,-126.1 242.21,-117.26"/>
<polygon fill="grey" stroke="grey" stroke-width="2" points="245.44,-118.63 246.66,-108.1 239.14,-115.57 245.44,-118.63"/>
</g>
<!-- 3&#45;&gt;0 -->
<g id="edge3" class="edge">
<title>3&#45;&gt;0</title>
<path fill="none" stroke="grey" stroke-width="2" d="M238.15,-71.7C229.84,-63.14 219.66,-52.66 210.57,-43.3"/>
<polygon fill="grey" stroke="grey" stroke-width="2" points="213.06,-40.84 203.58,-36.1 208.04,-45.72 213.06,-40.84"/>
</g>
<!-- 4 -->
<g id="node5" class="node">
<title>4</title>
<path fill="none" stroke="#d8cb56" stroke-width="2" d="M374.46,-108C374.46,-108 325.46,-108 325.46,-108 319.46,-108 313.46,-102 313.46,-96 313.46,-96 313.46,-84 313.46,-84 313.46,-78 319.46,-72 325.46,-72 325.46,-72 374.46,-72 374.46,-72 380.46,-72 386.46,-78 386.46,-84 386.46,-84 386.46,-96 386.46,-96 386.46,-102 380.46,-108 374.46,-108"/>
<text text-anchor="middle" x="349.96" y="-87.5" font-family="sans" font-size="10.00">get_adapters</text>
</g>
<!-- 4&#45;&gt;0 -->
<g id="edge4" class="edge">
<title>4&#45;&gt;0</title>
<path fill="none" stroke="grey" stroke-width="2" d="M313.38,-73.29C286.55,-61.77 250.27,-46.18 223.45,-34.67"/>
<polygon fill="grey" stroke="grey" stroke-width="2" points="224.61,-31.36 214.04,-30.63 221.85,-37.79 224.61,-31.36"/>
</g>
<!-- 5 -->
<g id="node6" class="node">
<title>5</title>
<path fill="none" stroke="#56c9d8" stroke-width="2" d="M446.96,-108C446.96,-108 416.96,-108 416.96,-108 410.96,-108 404.96,-102 404.96,-96 404.96,-96 404.96,-84 404.96,-84 404.96,-78 410.96,-72 416.96,-72 416.96,-72 446.96,-72 446.96,-72 452.96,-72 458.96,-78 458.96,-84 458.96,-84 458.96,-96 458.96,-96 458.96,-102 452.96,-108 446.96,-108"/>
<text text-anchor="middle" x="431.96" y="-87.5" font-family="sans" font-size="10.00">get_dag</text>
</g>
<!-- 5&#45;&gt;0 -->
<g id="edge5" class="edge">
<title>5&#45;&gt;0</title>
<path fill="none" stroke="grey" stroke-width="2" d="M404.68,-75.45C401.77,-74.2 398.83,-73.03 395.96,-72 337.22,-50.9 266.33,-34.8 224.04,-26.14"/>
<polygon fill="grey" stroke="grey" stroke-width="2" points="224.68,-22.7 214.18,-24.15 223.29,-29.56 224.68,-22.7"/>
</g>
<!-- 6&#45;&gt;0 -->
<g id="edge6" class="edge">
<title>6&#45;&gt;0</title>
<path fill="none" stroke="grey" stroke-width="2" d="M84.23,-71.88C104.28,-61.56 129.84,-48.4 150.44,-37.8"/>
<polygon fill="grey" stroke="grey" stroke-width="2" points="152.24,-40.81 159.53,-33.12 149.03,-34.59 152.24,-40.81"/>
</g>
<!-- 7&#45;&gt;0 -->
<g id="edge7" class="edge">
<title>7&#45;&gt;0</title>
<path fill="none" stroke="grey" stroke-width="2" d="M145.56,-71.7C152.09,-63.39 160.03,-53.28 167.21,-44.14"/>
<polygon fill="grey" stroke="grey" stroke-width="2" points="170.1,-46.13 173.52,-36.1 164.59,-41.81 170.1,-46.13"/>
</g>
</g>
</svg>
