<?xml version="1.0" encoding="UTF-8" standalone="no"?>
<!DOCTYPE svg PUBLIC "-//W3C//DTD SVG 1.1//EN"
 "http://www.w3.org/Graphics/SVG/1.1/DTD/svg11.dtd">
<!-- Generated by graphviz version 6.0.1 (0)
 -->
<!-- Title: snakemake_dag Pages: 1 -->
<svg width="359pt" height="476pt"
 viewBox="0.00 0.00 358.50 476.00" xmlns="http://www.w3.org/2000/svg" xmlns:xlink="http://www.w3.org/1999/xlink">
<g id="graph0" class="graph" transform="scale(1 1) rotate(0) translate(4 472)">
<title>snakemake_dag</title>
<polygon fill="white" stroke="none" points="-4,4 -4,-472 354.5,-472 354.5,4 -4,4"/>
<!-- 0 -->
<g id="node1" class="node">
<title>0</title>
<path fill="none" stroke="#568ad8" stroke-width="2" d="M216,-36C216,-36 186,-36 186,-36 180,-36 174,-30 174,-24 174,-24 174,-12 174,-12 174,-6 180,0 186,0 186,0 216,0 216,0 222,0 228,-6 228,-12 228,-12 228,-24 228,-24 228,-30 222,-36 216,-36"/>
<text text-anchor="middle" x="201" y="-15.5" font-family="sans" font-size="10.00">all</text>
</g>
<!-- 1 -->
<g id="node2" class="node">
<title>1</title>
<path fill="none" stroke="#d85656" stroke-width="2" d="M295.5,-252C295.5,-252 248.5,-252 248.5,-252 242.5,-252 236.5,-246 236.5,-240 236.5,-240 236.5,-228 236.5,-228 236.5,-222 242.5,-216 248.5,-216 248.5,-216 295.5,-216 295.5,-216 301.5,-216 307.5,-222 307.5,-228 307.5,-228 307.5,-240 307.5,-240 307.5,-246 301.5,-252 295.5,-252"/>
<text text-anchor="middle" x="272" y="-231.5" font-family="sans" font-size="10.00">bcftools_call</text>
</g>
<!-- 1&#45;&gt;0 -->
<g id="edge1" class="edge">
<title>1&#45;&gt;0</title>
<path fill="none" stroke="grey" stroke-width="2" d="M280.62,-215.67C294.73,-184.61 318.67,-118.4 292,-72 280.33,-51.7 257.57,-38.45 237.73,-30.27"/>
<polygon fill="grey" stroke="grey" stroke-width="2" points="238.88,-26.97 228.29,-26.66 236.38,-33.5 238.88,-26.97"/>
</g>
<!-- 5 -->
<g id="node6" class="node">
<title>5</title>
<path fill="none" stroke="#d88d56" stroke-width="2" d="M231.5,-180C231.5,-180 194.5,-180 194.5,-180 188.5,-180 182.5,-174 182.5,-168 182.5,-168 182.5,-156 182.5,-156 182.5,-150 188.5,-144 194.5,-144 194.5,-144 231.5,-144 231.5,-144 237.5,-144 243.5,-150 243.5,-156 243.5,-156 243.5,-168 243.5,-168 243.5,-174 237.5,-180 231.5,-180"/>
<text text-anchor="middle" x="213" y="-159.5" font-family="sans" font-size="10.00">plot_quals</text>
</g>
<!-- 1&#45;&gt;5 -->
<g id="edge10" class="edge">
<title>1&#45;&gt;5</title>
<path fill="none" stroke="grey" stroke-width="2" d="M257.42,-215.7C250.34,-207.3 241.72,-197.07 233.95,-187.86"/>
<polygon fill="grey" stroke="grey" stroke-width="2" points="236.54,-185.49 227.42,-180.1 231.19,-190.01 236.54,-185.49"/>
</g>
<!-- 7 -->
<g id="node8" class="node">
<title>7</title>
<path fill="none" stroke="#d8bc56" stroke-width="2" d="M271,-108C271,-108 241,-108 241,-108 235,-108 229,-102 229,-96 229,-96 229,-84 229,-84 229,-78 235,-72 241,-72 241,-72 271,-72 271,-72 277,-72 283,-78 283,-84 283,-84 283,-96 283,-96 283,-102 277,-108 271,-108"/>
<text text-anchor="middle" x="256" y="-87.5" font-family="sans" font-size="10.00">report</text>
</g>
<!-- 1&#45;&gt;7 -->
<g id="edge11" class="edge">
<title>1&#45;&gt;7</title>
<path fill="none" stroke="grey" stroke-width="2" d="M270.07,-215.87C267.34,-191.67 262.33,-147.21 259.09,-118.39"/>
<polygon fill="grey" stroke="grey" stroke-width="2" points="262.53,-117.73 257.94,-108.19 255.58,-118.52 262.53,-117.73"/>
</g>
<!-- 2 -->
<g id="node3" class="node">
<title>2</title>
<path fill="none" stroke="#56d8c1" stroke-width="2" d="M299,-396C299,-396 245,-396 245,-396 239,-396 233,-390 233,-384 233,-384 233,-372 233,-372 233,-366 239,-360 245,-360 245,-360 299,-360 299,-360 305,-360 311,-366 311,-372 311,-372 311,-384 311,-384 311,-390 305,-396 299,-396"/>
<text text-anchor="middle" x="272" y="-375.5" font-family="sans" font-size="10.00">samtools_sort</text>
</g>
<!-- 2&#45;&gt;1 -->
<g id="edge7" class="edge">
<title>2&#45;&gt;1</title>
<path fill="none" stroke="grey" stroke-width="2" d="M265.76,-359.59C262.43,-349.37 258.68,-336.12 257,-324 254.8,-308.15 254.8,-303.85 257,-288 258.18,-279.48 260.39,-270.39 262.75,-262.2"/>
<polygon fill="grey" stroke="grey" stroke-width="2" points="266.17,-262.99 265.76,-252.41 259.48,-260.94 266.17,-262.99"/>
</g>
<!-- 4 -->
<g id="node5" class="node">
<title>4</title>
<path fill="none" stroke="#56c1d8" stroke-width="2" d="M338.5,-324C338.5,-324 277.5,-324 277.5,-324 271.5,-324 265.5,-318 265.5,-312 265.5,-312 265.5,-300 265.5,-300 265.5,-294 271.5,-288 277.5,-288 277.5,-288 338.5,-288 338.5,-288 344.5,-288 350.5,-294 350.5,-300 350.5,-300 350.5,-312 350.5,-312 350.5,-318 344.5,-324 338.5,-324"/>
<text text-anchor="middle" x="308" y="-303.5" font-family="sans" font-size="10.00">samtools_index</text>
</g>
<!-- 2&#45;&gt;4 -->
<g id="edge9" class="edge">
<title>2&#45;&gt;4</title>
<path fill="none" stroke="grey" stroke-width="2" d="M280.9,-359.7C285,-351.73 289.95,-342.1 294.49,-333.26"/>
<polygon fill="grey" stroke="grey" stroke-width="2" points="297.74,-334.6 299.2,-324.1 291.52,-331.4 297.74,-334.6"/>
</g>
<!-- 3 -->
<g id="node4" class="node">
<title>3</title>
<path fill="none" stroke="#88d856" stroke-width="2" d="M289.5,-468C289.5,-468 254.5,-468 254.5,-468 248.5,-468 242.5,-462 242.5,-456 242.5,-456 242.5,-444 242.5,-444 242.5,-438 248.5,-432 254.5,-432 254.5,-432 289.5,-432 289.5,-432 295.5,-432 301.5,-438 301.5,-444 301.5,-444 301.5,-456 301.5,-456 301.5,-462 295.5,-468 289.5,-468"/>
<text text-anchor="middle" x="272" y="-447.5" font-family="sans" font-size="10.00">bwa_map</text>
</g>
<!-- 3&#45;&gt;2 -->
<g id="edge8" class="edge">
<title>3&#45;&gt;2</title>
<path fill="none" stroke="grey" stroke-width="2" d="M272,-431.7C272,-423.98 272,-414.71 272,-406.11"/>
<polygon fill="grey" stroke="grey" stroke-width="2" points="275.5,-406.1 272,-396.1 268.5,-406.1 275.5,-406.1"/>
</g>
<!-- 4&#45;&gt;1 -->
<g id="edge6" class="edge">
<title>4&#45;&gt;1</title>
<path fill="none" stroke="grey" stroke-width="2" d="M299.1,-287.7C295,-279.73 290.05,-270.1 285.51,-261.26"/>
<polygon fill="grey" stroke="grey" stroke-width="2" points="288.48,-259.4 280.8,-252.1 282.26,-262.6 288.48,-259.4"/>
</g>
<!-- 5&#45;&gt;0 -->
<g id="edge2" class="edge">
<title>5&#45;&gt;0</title>
<path fill="none" stroke="grey" stroke-width="2" d="M211.55,-143.87C209.51,-119.67 205.75,-75.21 203.31,-46.39"/>
<polygon fill="grey" stroke="grey" stroke-width="2" points="206.78,-45.86 202.45,-36.19 199.81,-46.45 206.78,-45.86"/>
</g>
<!-- 8 -->
<g id="node9" class="node">
<title>8</title>
<path fill="none" stroke="#56d88a" stroke-width="2" d="M161,-108C161,-108 113,-108 113,-108 107,-108 101,-102 101,-96 101,-96 101,-84 101,-84 101,-78 107,-72 113,-72 113,-72 161,-72 161,-72 167,-72 173,-78 173,-84 173,-84 173,-96 173,-96 173,-102 167,-108 161,-108"/>
<text text-anchor="middle" x="137" y="-87.5" font-family="sans" font-size="10.00">render_index</text>
</g>
<!-- 5&#45;&gt;8 -->
<g id="edge12" class="edge">
<title>5&#45;&gt;8</title>
<path fill="none" stroke="grey" stroke-width="2" d="M194.21,-143.7C184.83,-135.05 173.32,-124.45 163.09,-115.03"/>
<polygon fill="grey" stroke="grey" stroke-width="2" points="165.3,-112.3 155.57,-108.1 160.55,-117.45 165.3,-112.3"/>
</g>
<!-- 6 -->
<g id="node7" class="node">
<title>6</title>
<path fill="none" stroke="#59d856" stroke-width="2" d="M80,-180C80,-180 12,-180 12,-180 6,-180 0,-174 0,-168 0,-168 0,-156 0,-156 0,-150 6,-144 12,-144 12,-144 80,-144 80,-144 86,-144 92,-150 92,-156 92,-156 92,-168 92,-168 92,-174 86,-180 80,-180"/>
<text text-anchor="middle" x="46" y="-159.5" font-family="sans" font-size="10.00">plot_lumpy_quals</text>
</g>
<!-- 6&#45;&gt;0 -->
<g id="edge5" class="edge">
<title>6&#45;&gt;0</title>
<path fill="none" stroke="grey" stroke-width="2" d="M51.16,-143.91C57.81,-124.36 71.09,-92.41 92,-72 112.29,-52.2 141.42,-38.56 164.46,-30.08"/>
<polygon fill="grey" stroke="grey" stroke-width="2" points="165.65,-33.37 173.92,-26.76 163.33,-26.77 165.65,-33.37"/>
</g>
<!-- 6&#45;&gt;8 -->
<g id="edge14" class="edge">
<title>6&#45;&gt;8</title>
<path fill="none" stroke="grey" stroke-width="2" d="M68.49,-143.7C79.96,-134.88 94.06,-124.03 106.48,-114.47"/>
<polygon fill="grey" stroke="grey" stroke-width="2" points="108.97,-116.98 114.76,-108.1 104.7,-111.43 108.97,-116.98"/>
</g>
<!-- 7&#45;&gt;0 -->
<g id="edge3" class="edge">
<title>7&#45;&gt;0</title>
<path fill="none" stroke="grey" stroke-width="2" d="M242.4,-71.7C235.88,-63.39 227.93,-53.28 220.75,-44.14"/>
<polygon fill="grey" stroke="grey" stroke-width="2" points="223.37,-41.81 214.44,-36.1 217.87,-46.13 223.37,-41.81"/>
</g>
<!-- 8&#45;&gt;0 -->
<g id="edge4" class="edge">
<title>8&#45;&gt;0</title>
<path fill="none" stroke="grey" stroke-width="2" d="M152.82,-71.7C160.57,-63.22 170.04,-52.86 178.52,-43.58"/>
<polygon fill="grey" stroke="grey" stroke-width="2" points="181.2,-45.85 185.36,-36.1 176.03,-41.12 181.2,-45.85"/>
</g>
<!-- 9 -->
<g id="node10" class="node">
<title>9</title>
<path fill="none" stroke="#bed856" stroke-width="2" d="M152,-180C152,-180 122,-180 122,-180 116,-180 110,-174 110,-168 110,-168 110,-156 110,-156 110,-150 116,-144 122,-144 122,-144 152,-144 152,-144 158,-144 164,-150 164,-156 164,-156 164,-168 164,-168 164,-174 158,-180 152,-180"/>
<text text-anchor="middle" x="137" y="-159.5" font-family="sans" font-size="10.00">get_dag</text>
</g>
<!-- 9&#45;&gt;8 -->
<g id="edge13" class="edge">
<title>9&#45;&gt;8</title>
<path fill="none" stroke="grey" stroke-width="2" d="M137,-143.7C137,-135.98 137,-126.71 137,-118.11"/>
<polygon fill="grey" stroke="grey" stroke-width="2" points="140.5,-118.1 137,-108.1 133.5,-118.1 140.5,-118.1"/>
</g>
</g>
</svg>
