<?xml version="1.0" encoding="UTF-8" standalone="no"?>
<!DOCTYPE svg PUBLIC "-//W3C//DTD SVG 1.1//EN"
 "http://www.w3.org/Graphics/SVG/1.1/DTD/svg11.dtd">
<!-- Generated by graphviz version 6.0.1 (0)
 -->
<!-- Title: snakemake_dag Pages: 1 -->
<svg width="501pt" height="476pt"
 viewBox="0.00 0.00 500.50 476.00" xmlns="http://www.w3.org/2000/svg" xmlns:xlink="http://www.w3.org/1999/xlink">
<g id="graph0" class="graph" transform="scale(1 1) rotate(0) translate(4 472)">
<title>snakemake_dag</title>
<polygon fill="white" stroke="none" points="-4,4 -4,-472 496.5,-472 496.5,4 -4,4"/>
<!-- 0 -->
<g id="node1" class="node">
<title>0</title>
<path fill="none" stroke="#bed856" stroke-width="2" d="M216,-36C216,-36 186,-36 186,-36 180,-36 174,-30 174,-24 174,-24 174,-12 174,-12 174,-6 180,0 186,0 186,0 216,0 216,0 222,0 228,-6 228,-12 228,-12 228,-24 228,-24 228,-30 222,-36 216,-36"/>
<text text-anchor="middle" x="201" y="-15.5" font-family="sans" font-size="10.00">all</text>
</g>
<!-- 1 -->
<g id="node2" class="node">
<title>1</title>
<path fill="none" stroke="#56c1d8" stroke-width="2" d="M295.5,-252C295.5,-252 248.5,-252 248.5,-252 242.5,-252 236.5,-246 236.5,-240 236.5,-240 236.5,-228 236.5,-228 236.5,-222 242.5,-216 248.5,-216 248.5,-216 295.5,-216 295.5,-216 301.5,-216 307.5,-222 307.5,-228 307.5,-228 307.5,-240 307.5,-240 307.5,-246 301.5,-252 295.5,-252"/>
<text text-anchor="middle" x="272" y="-231.5" font-family="sans" font-size="10.00">bcftools_call</text>
</g>
<!-- 1&#45;&gt;0 -->
<g id="edge1" class="edge">
<title>1&#45;&gt;0</title>
<path fill="none" stroke="grey" stroke-width="2" d="M280.62,-215.67C294.73,-184.61 318.67,-118.4 292,-72 280.33,-51.7 257.57,-38.45 237.73,-30.27"/>
<polygon fill="grey" stroke="grey" stroke-width="2" points="238.88,-26.97 228.29,-26.66 236.38,-33.5 238.88,-26.97"/>
</g>
<!-- 11 -->
<g id="node12" class="node">
<title>11</title>
<path fill="none" stroke="#d8bc56" stroke-width="2" d="M231.5,-180C231.5,-180 194.5,-180 194.5,-180 188.5,-180 182.5,-174 182.5,-168 182.5,-168 182.5,-156 182.5,-156 182.5,-150 188.5,-144 194.5,-144 194.5,-144 231.5,-144 231.5,-144 237.5,-144 243.5,-150 243.5,-156 243.5,-156 243.5,-168 243.5,-168 243.5,-174 237.5,-180 231.5,-180"/>
<text text-anchor="middle" x="213" y="-159.5" font-family="sans" font-size="10.00">plot_quals</text>
</g>
<!-- 1&#45;&gt;11 -->
<g id="edge18" class="edge">
<title>1&#45;&gt;11</title>
<path fill="none" stroke="grey" stroke-width="2" d="M257.42,-215.7C250.34,-207.3 241.72,-197.07 233.95,-187.86"/>
<polygon fill="grey" stroke="grey" stroke-width="2" points="236.54,-185.49 227.42,-180.1 231.19,-190.01 236.54,-185.49"/>
</g>
<!-- 13 -->
<g id="node14" class="node">
<title>13</title>
<path fill="none" stroke="#56d88a" stroke-width="2" d="M271,-108C271,-108 241,-108 241,-108 235,-108 229,-102 229,-96 229,-96 229,-84 229,-84 229,-78 235,-72 241,-72 241,-72 271,-72 271,-72 277,-72 283,-78 283,-84 283,-84 283,-96 283,-96 283,-102 277,-108 271,-108"/>
<text text-anchor="middle" x="256" y="-87.5" font-family="sans" font-size="10.00">report</text>
</g>
<!-- 1&#45;&gt;13 -->
<g id="edge19" class="edge">
<title>1&#45;&gt;13</title>
<path fill="none" stroke="grey" stroke-width="2" d="M270.07,-215.87C267.34,-191.67 262.33,-147.21 259.09,-118.39"/>
<polygon fill="grey" stroke="grey" stroke-width="2" points="262.53,-117.73 257.94,-108.19 255.58,-118.52 262.53,-117.73"/>
</g>
<!-- 2 -->
<g id="node3" class="node">
<title>2</title>
<path fill="none" stroke="#d88d56" stroke-width="2" d="M158,-396C158,-396 104,-396 104,-396 98,-396 92,-390 92,-384 92,-384 92,-372 92,-372 92,-366 98,-360 104,-360 104,-360 158,-360 158,-360 164,-360 170,-366 170,-372 170,-372 170,-384 170,-384 170,-390 164,-396 158,-396"/>
<text text-anchor="middle" x="131" y="-375.5" font-family="sans" font-size="10.00">samtools_sort</text>
</g>
<!-- 2&#45;&gt;1 -->
<g id="edge6" class="edge">
<title>2&#45;&gt;1</title>
<path fill="none" stroke="grey" stroke-width="2" d="M120.7,-359.94C110.57,-340.7 98.66,-309.33 114,-288 139.33,-252.79 189.17,-240.64 226.13,-236.62"/>
<polygon fill="grey" stroke="grey" stroke-width="2" points="226.55,-240.1 236.18,-235.69 225.9,-233.13 226.55,-240.1"/>
</g>
<!-- 8 -->
<g id="node9" class="node">
<title>8</title>
<path fill="none" stroke="#59d856" stroke-width="2" d="M196.5,-324C196.5,-324 135.5,-324 135.5,-324 129.5,-324 123.5,-318 123.5,-312 123.5,-312 123.5,-300 123.5,-300 123.5,-294 129.5,-288 135.5,-288 135.5,-288 196.5,-288 196.5,-288 202.5,-288 208.5,-294 208.5,-300 208.5,-300 208.5,-312 208.5,-312 208.5,-318 202.5,-324 196.5,-324"/>
<text text-anchor="middle" x="166" y="-303.5" font-family="sans" font-size="10.00">samtools_index</text>
</g>
<!-- 2&#45;&gt;8 -->
<g id="edge15" class="edge">
<title>2&#45;&gt;8</title>
<path fill="none" stroke="grey" stroke-width="2" d="M139.65,-359.7C143.64,-351.73 148.45,-342.1 152.87,-333.26"/>
<polygon fill="grey" stroke="grey" stroke-width="2" points="156.11,-334.61 157.45,-324.1 149.85,-331.48 156.11,-334.61"/>
</g>
<!-- 3 -->
<g id="node4" class="node">
<title>3</title>
<path fill="none" stroke="#d85656" stroke-width="2" d="M149,-468C149,-468 113,-468 113,-468 107,-468 101,-462 101,-456 101,-456 101,-444 101,-444 101,-438 107,-432 113,-432 113,-432 149,-432 149,-432 155,-432 161,-438 161,-444 161,-444 161,-456 161,-456 161,-462 155,-468 149,-468"/>
<text text-anchor="middle" x="131" y="-453" font-family="sans" font-size="10.00">bwa_map</text>
<text text-anchor="middle" x="131" y="-442" font-family="sans" font-size="10.00">sample: A</text>
</g>
<!-- 3&#45;&gt;2 -->
<g id="edge12" class="edge">
<title>3&#45;&gt;2</title>
<path fill="none" stroke="grey" stroke-width="2" d="M131,-431.7C131,-423.98 131,-414.71 131,-406.11"/>
<polygon fill="grey" stroke="grey" stroke-width="2" points="134.5,-406.1 131,-396.1 127.5,-406.1 134.5,-406.1"/>
</g>
<!-- 4 -->
<g id="node5" class="node">
<title>4</title>
<path fill="none" stroke="#d88d56" stroke-width="2" d="M317,-396C317,-396 263,-396 263,-396 257,-396 251,-390 251,-384 251,-384 251,-372 251,-372 251,-366 257,-360 263,-360 263,-360 317,-360 317,-360 323,-360 329,-366 329,-372 329,-372 329,-384 329,-384 329,-390 323,-396 317,-396"/>
<text text-anchor="middle" x="290" y="-375.5" font-family="sans" font-size="10.00">samtools_sort</text>
</g>
<!-- 4&#45;&gt;1 -->
<g id="edge7" class="edge">
<title>4&#45;&gt;1</title>
<path fill="none" stroke="grey" stroke-width="2" d="M275.67,-359.57C268.55,-349.76 260.69,-336.92 257,-324 251.14,-303.5 255.75,-279.65 261.35,-261.81"/>
<polygon fill="grey" stroke="grey" stroke-width="2" points="264.67,-262.91 264.6,-252.31 258.05,-260.64 264.67,-262.91"/>
</g>
<!-- 9 -->
<g id="node10" class="node">
<title>9</title>
<path fill="none" stroke="#59d856" stroke-width="2" d="M338.5,-324C338.5,-324 277.5,-324 277.5,-324 271.5,-324 265.5,-318 265.5,-312 265.5,-312 265.5,-300 265.5,-300 265.5,-294 271.5,-288 277.5,-288 277.5,-288 338.5,-288 338.5,-288 344.5,-288 350.5,-294 350.5,-300 350.5,-300 350.5,-312 350.5,-312 350.5,-318 344.5,-324 338.5,-324"/>
<text text-anchor="middle" x="308" y="-303.5" font-family="sans" font-size="10.00">samtools_index</text>
</g>
<!-- 4&#45;&gt;9 -->
<g id="edge16" class="edge">
<title>4&#45;&gt;9</title>
<path fill="none" stroke="grey" stroke-width="2" d="M294.45,-359.7C296.45,-351.9 298.87,-342.51 301.1,-333.83"/>
<polygon fill="grey" stroke="grey" stroke-width="2" points="304.5,-334.66 303.6,-324.1 297.72,-332.92 304.5,-334.66"/>
</g>
<!-- 5 -->
<g id="node6" class="node">
<title>5</title>
<path fill="none" stroke="#d85656" stroke-width="2" d="M308.5,-468C308.5,-468 271.5,-468 271.5,-468 265.5,-468 259.5,-462 259.5,-456 259.5,-456 259.5,-444 259.5,-444 259.5,-438 265.5,-432 271.5,-432 271.5,-432 308.5,-432 308.5,-432 314.5,-432 320.5,-438 320.5,-444 320.5,-444 320.5,-456 320.5,-456 320.5,-462 314.5,-468 308.5,-468"/>
<text text-anchor="middle" x="290" y="-453" font-family="sans" font-size="10.00">bwa_map</text>
<text text-anchor="middle" x="290" y="-442" font-family="sans" font-size="10.00">sample: B</text>
</g>
<!-- 5&#45;&gt;4 -->
<g id="edge13" class="edge">
<title>5&#45;&gt;4</title>
<path fill="none" stroke="grey" stroke-width="2" d="M290,-431.7C290,-423.98 290,-414.71 290,-406.11"/>
<polygon fill="grey" stroke="grey" stroke-width="2" points="293.5,-406.1 290,-396.1 286.5,-406.1 293.5,-406.1"/>
</g>
<!-- 6 -->
<g id="node7" class="node">
<title>6</title>
<path fill="none" stroke="#d88d56" stroke-width="2" d="M423,-396C423,-396 369,-396 369,-396 363,-396 357,-390 357,-384 357,-384 357,-372 357,-372 357,-366 363,-360 369,-360 369,-360 423,-360 423,-360 429,-360 435,-366 435,-372 435,-372 435,-384 435,-384 435,-390 429,-396 423,-396"/>
<text text-anchor="middle" x="396" y="-375.5" font-family="sans" font-size="10.00">samtools_sort</text>
</g>
<!-- 6&#45;&gt;1 -->
<g id="edge8" class="edge">
<title>6&#45;&gt;1</title>
<path fill="none" stroke="grey" stroke-width="2" d="M392.52,-359.89C387.88,-340.59 378.07,-309.17 360,-288 348.29,-274.28 332.09,-263.13 316.79,-254.66"/>
<polygon fill="grey" stroke="grey" stroke-width="2" points="318.4,-251.55 307.92,-249.98 315.13,-257.74 318.4,-251.55"/>
</g>
<!-- 10 -->
<g id="node11" class="node">
<title>10</title>
<path fill="none" stroke="#59d856" stroke-width="2" d="M480.5,-324C480.5,-324 419.5,-324 419.5,-324 413.5,-324 407.5,-318 407.5,-312 407.5,-312 407.5,-300 407.5,-300 407.5,-294 413.5,-288 419.5,-288 419.5,-288 480.5,-288 480.5,-288 486.5,-288 492.5,-294 492.5,-300 492.5,-300 492.5,-312 492.5,-312 492.5,-318 486.5,-324 480.5,-324"/>
<text text-anchor="middle" x="450" y="-303.5" font-family="sans" font-size="10.00">samtools_index</text>
</g>
<!-- 6&#45;&gt;10 -->
<g id="edge17" class="edge">
<title>6&#45;&gt;10</title>
<path fill="none" stroke="grey" stroke-width="2" d="M409.35,-359.7C415.76,-351.39 423.56,-341.28 430.61,-332.14"/>
<polygon fill="grey" stroke="grey" stroke-width="2" points="433.47,-334.16 436.81,-324.1 427.93,-329.88 433.47,-334.16"/>
</g>
<!-- 7 -->
<g id="node8" class="node">
<title>7</title>
<path fill="none" stroke="#d85656" stroke-width="2" d="M415,-468C415,-468 377,-468 377,-468 371,-468 365,-462 365,-456 365,-456 365,-444 365,-444 365,-438 371,-432 377,-432 377,-432 415,-432 415,-432 421,-432 427,-438 427,-444 427,-444 427,-456 427,-456 427,-462 421,-468 415,-468"/>
<text text-anchor="middle" x="396" y="-453" font-family="sans" font-size="10.00">bwa_map</text>
<text text-anchor="middle" x="396" y="-442" font-family="sans" font-size="10.00">sample: C</text>
</g>
<!-- 7&#45;&gt;6 -->
<g id="edge14" class="edge">
<title>7&#45;&gt;6</title>
<path fill="none" stroke="grey" stroke-width="2" d="M396,-431.7C396,-423.98 396,-414.71 396,-406.11"/>
<polygon fill="grey" stroke="grey" stroke-width="2" points="399.5,-406.1 396,-396.1 392.5,-406.1 399.5,-406.1"/>
</g>
<!-- 8&#45;&gt;1 -->
<g id="edge9" class="edge">
<title>8&#45;&gt;1</title>
<path fill="none" stroke="grey" stroke-width="2" d="M191.93,-287.88C205.66,-278.81 222.71,-267.55 237.54,-257.76"/>
<polygon fill="grey" stroke="grey" stroke-width="2" points="239.55,-260.62 245.97,-252.19 235.7,-254.78 239.55,-260.62"/>
</g>
<!-- 9&#45;&gt;1 -->
<g id="edge10" class="edge">
<title>9&#45;&gt;1</title>
<path fill="none" stroke="grey" stroke-width="2" d="M299.1,-287.7C295,-279.73 290.05,-270.1 285.51,-261.26"/>
<polygon fill="grey" stroke="grey" stroke-width="2" points="288.48,-259.4 280.8,-252.1 282.26,-262.6 288.48,-259.4"/>
</g>
<!-- 10&#45;&gt;1 -->
<g id="edge11" class="edge">
<title>10&#45;&gt;1</title>
<path fill="none" stroke="grey" stroke-width="2" d="M407.36,-288.23C380.13,-277.52 344.86,-263.65 317.15,-252.76"/>
<polygon fill="grey" stroke="grey" stroke-width="2" points="318.28,-249.44 307.69,-249.04 315.72,-255.95 318.28,-249.44"/>
</g>
<!-- 11&#45;&gt;0 -->
<g id="edge2" class="edge">
<title>11&#45;&gt;0</title>
<path fill="none" stroke="grey" stroke-width="2" d="M211.55,-143.87C209.51,-119.67 205.75,-75.21 203.31,-46.39"/>
<polygon fill="grey" stroke="grey" stroke-width="2" points="206.78,-45.86 202.45,-36.19 199.81,-46.45 206.78,-45.86"/>
</g>
<!-- 14 -->
<g id="node15" class="node">
<title>14</title>
<path fill="none" stroke="#56d8c1" stroke-width="2" d="M161,-108C161,-108 113,-108 113,-108 107,-108 101,-102 101,-96 101,-96 101,-84 101,-84 101,-78 107,-72 113,-72 113,-72 161,-72 161,-72 167,-72 173,-78 173,-84 173,-84 173,-96 173,-96 173,-102 167,-108 161,-108"/>
<text text-anchor="middle" x="137" y="-87.5" font-family="sans" font-size="10.00">render_index</text>
</g>
<!-- 11&#45;&gt;14 -->
<g id="edge20" class="edge">
<title>11&#45;&gt;14</title>
<path fill="none" stroke="grey" stroke-width="2" d="M194.21,-143.7C184.83,-135.05 173.32,-124.45 163.09,-115.03"/>
<polygon fill="grey" stroke="grey" stroke-width="2" points="165.3,-112.3 155.57,-108.1 160.55,-117.45 165.3,-112.3"/>
</g>
<!-- 12 -->
<g id="node13" class="node">
<title>12</title>
<path fill="none" stroke="#88d856" stroke-width="2" d="M80,-180C80,-180 12,-180 12,-180 6,-180 0,-174 0,-168 0,-168 0,-156 0,-156 0,-150 6,-144 12,-144 12,-144 80,-144 80,-144 86,-144 92,-150 92,-156 92,-156 92,-168 92,-168 92,-174 86,-180 80,-180"/>
<text text-anchor="middle" x="46" y="-159.5" font-family="sans" font-size="10.00">plot_lumpy_quals</text>
</g>
<!-- 12&#45;&gt;0 -->
<g id="edge3" class="edge">
<title>12&#45;&gt;0</title>
<path fill="none" stroke="grey" stroke-width="2" d="M51.16,-143.91C57.81,-124.36 71.09,-92.41 92,-72 112.29,-52.2 141.42,-38.56 164.46,-30.08"/>
<polygon fill="grey" stroke="grey" stroke-width="2" points="165.65,-33.37 173.92,-26.76 163.33,-26.77 165.65,-33.37"/>
</g>
<!-- 12&#45;&gt;14 -->
<g id="edge21" class="edge">
<title>12&#45;&gt;14</title>
<path fill="none" stroke="grey" stroke-width="2" d="M68.49,-143.7C79.96,-134.88 94.06,-124.03 106.48,-114.47"/>
<polygon fill="grey" stroke="grey" stroke-width="2" points="108.97,-116.98 114.76,-108.1 104.7,-111.43 108.97,-116.98"/>
</g>
<!-- 13&#45;&gt;0 -->
<g id="edge4" class="edge">
<title>13&#45;&gt;0</title>
<path fill="none" stroke="grey" stroke-width="2" d="M242.4,-71.7C235.88,-63.39 227.93,-53.28 220.75,-44.14"/>
<polygon fill="grey" stroke="grey" stroke-width="2" points="223.37,-41.81 214.44,-36.1 217.87,-46.13 223.37,-41.81"/>
</g>
<!-- 14&#45;&gt;0 -->
<g id="edge5" class="edge">
<title>14&#45;&gt;0</title>
<path fill="none" stroke="grey" stroke-width="2" d="M152.82,-71.7C160.57,-63.22 170.04,-52.86 178.52,-43.58"/>
<polygon fill="grey" stroke="grey" stroke-width="2" points="181.2,-45.85 185.36,-36.1 176.03,-41.12 181.2,-45.85"/>
</g>
<!-- 15 -->
<g id="node16" class="node">
<title>15</title>
<path fill="none" stroke="#568ad8" stroke-width="2" d="M152,-180C152,-180 122,-180 122,-180 116,-180 110,-174 110,-168 110,-168 110,-156 110,-156 110,-150 116,-144 122,-144 122,-144 152,-144 152,-144 158,-144 164,-150 164,-156 164,-156 164,-168 164,-168 164,-174 158,-180 152,-180"/>
<text text-anchor="middle" x="137" y="-159.5" font-family="sans" font-size="10.00">get_dag</text>
</g>
<!-- 15&#45;&gt;14 -->
<g id="edge22" class="edge">
<title>15&#45;&gt;14</title>
<path fill="none" stroke="grey" stroke-width="2" d="M137,-143.7C137,-135.98 137,-126.71 137,-118.11"/>
<polygon fill="grey" stroke="grey" stroke-width="2" points="140.5,-118.1 137,-108.1 133.5,-118.1 140.5,-118.1"/>
</g>
</g>
</svg>
