<?xml version="1.0" encoding="UTF-8" standalone="no"?>
<!DOCTYPE svg PUBLIC "-//W3C//DTD SVG 1.1//EN"
 "http://www.w3.org/Graphics/SVG/1.1/DTD/svg11.dtd">
<!-- Generated by graphviz version 6.0.1 (0)
 -->
<!-- Title: snakemake_dag Pages: 1 -->
<svg width="442pt" height="476pt"
 viewBox="0.00 0.00 442.00 476.00" xmlns="http://www.w3.org/2000/svg" xmlns:xlink="http://www.w3.org/1999/xlink">
<g id="graph0" class="graph" transform="scale(1 1) rotate(0) translate(4 472)">
<title>snakemake_dag</title>
<polygon fill="white" stroke="none" points="-4,4 -4,-472 438,-472 438,4 -4,4"/>
<!-- 0 -->
<g id="node1" class="node">
<title>0</title>
<path fill="none" stroke="#9fd856" stroke-width="2" d="M230,-36C230,-36 200,-36 200,-36 194,-36 188,-30 188,-24 188,-24 188,-12 188,-12 188,-6 194,0 200,0 200,0 230,0 230,0 236,0 242,-6 242,-12 242,-12 242,-24 242,-24 242,-30 236,-36 230,-36"/>
<text text-anchor="middle" x="215" y="-15.5" font-family="sans" font-size="10.00">targets</text>
</g>
<!-- 1 -->
<g id="node2" class="node">
<title>1</title>
<path fill="none" stroke="#c6d856" stroke-width="2" d="M240,-108C240,-108 190,-108 190,-108 184,-108 178,-102 178,-96 178,-96 178,-84 178,-84 178,-78 184,-72 190,-72 190,-72 240,-72 240,-72 246,-72 252,-78 252,-84 252,-84 252,-96 252,-96 252,-102 246,-108 240,-108"/>
<text text-anchor="middle" x="215" y="-87.5" font-family="sans" font-size="10.00">render_report</text>
</g>
<!-- 1&#45;&gt;0 -->
<g id="edge1" class="edge">
<title>1&#45;&gt;0</title>
<path fill="none" stroke="grey" stroke-width="2" d="M215,-71.7C215,-63.98 215,-54.71 215,-46.11"/>
<polygon fill="grey" stroke="grey" stroke-width="2" points="218.5,-46.1 215,-36.1 211.5,-46.1 218.5,-46.1"/>
</g>
<!-- 2 -->
<g id="node3" class="node">
<title>2</title>
<path fill="none" stroke="#78d856" stroke-width="2" d="M80,-180C80,-180 12,-180 12,-180 6,-180 0,-174 0,-168 0,-168 0,-156 0,-156 0,-150 6,-144 12,-144 12,-144 80,-144 80,-144 86,-144 92,-150 92,-156 92,-156 92,-168 92,-168 92,-174 86,-180 80,-180"/>
<text text-anchor="middle" x="46" y="-159.5" font-family="sans" font-size="10.00">plot_performance</text>
</g>
<!-- 2&#45;&gt;1 -->
<g id="edge2" class="edge">
<title>2&#45;&gt;1</title>
<path fill="none" stroke="grey" stroke-width="2" d="M87.34,-143.88C111.86,-133.72 143.01,-120.82 168.4,-110.3"/>
<polygon fill="grey" stroke="grey" stroke-width="2" points="169.93,-113.46 177.83,-106.4 167.25,-106.99 169.93,-113.46"/>
</g>
<!-- 3 -->
<g id="node4" class="node">
<title>3</title>
<path fill="none" stroke="#59d856" stroke-width="2" d="M109,-252C109,-252 45,-252 45,-252 39,-252 33,-246 33,-240 33,-240 33,-228 33,-228 33,-222 39,-216 45,-216 45,-216 109,-216 109,-216 115,-216 121,-222 121,-228 121,-228 121,-240 121,-240 121,-246 115,-252 109,-252"/>
<text text-anchor="middle" x="77" y="-231.5" font-family="sans" font-size="10.00">combine_results</text>
</g>
<!-- 3&#45;&gt;2 -->
<g id="edge6" class="edge">
<title>3&#45;&gt;2</title>
<path fill="none" stroke="grey" stroke-width="2" d="M69.34,-215.7C65.81,-207.73 61.54,-198.1 57.63,-189.26"/>
<polygon fill="grey" stroke="grey" stroke-width="2" points="60.82,-187.83 53.57,-180.1 54.42,-190.67 60.82,-187.83"/>
</g>
<!-- 6 -->
<g id="node7" class="node">
<title>6</title>
<path fill="none" stroke="#56d87b" stroke-width="2" d="M219.5,-180C219.5,-180 122.5,-180 122.5,-180 116.5,-180 110.5,-174 110.5,-168 110.5,-168 110.5,-156 110.5,-156 110.5,-150 116.5,-144 122.5,-144 122.5,-144 219.5,-144 219.5,-144 225.5,-144 231.5,-150 231.5,-156 231.5,-156 231.5,-168 231.5,-168 231.5,-174 225.5,-180 219.5,-180"/>
<text text-anchor="middle" x="171" y="-159.5" font-family="sans" font-size="10.00">plot_feature_importance</text>
</g>
<!-- 3&#45;&gt;6 -->
<g id="edge10" class="edge">
<title>3&#45;&gt;6</title>
<path fill="none" stroke="grey" stroke-width="2" d="M100.24,-215.7C112.19,-206.8 126.92,-195.82 139.85,-186.2"/>
<polygon fill="grey" stroke="grey" stroke-width="2" points="142.1,-188.88 148.03,-180.1 137.92,-183.27 142.1,-188.88"/>
</g>
<!-- 4 -->
<g id="node5" class="node">
<title>4</title>
<path fill="none" stroke="#d8c356" stroke-width="2" d="M183,-396C183,-396 153,-396 153,-396 147,-396 141,-390 141,-384 141,-384 141,-372 141,-372 141,-366 147,-360 153,-360 153,-360 183,-360 183,-360 189,-360 195,-366 195,-372 195,-372 195,-384 195,-384 195,-390 189,-396 183,-396"/>
<text text-anchor="middle" x="168" y="-375.5" font-family="sans" font-size="10.00">run_ml</text>
</g>
<!-- 4&#45;&gt;3 -->
<g id="edge8" class="edge">
<title>4&#45;&gt;3</title>
<path fill="none" stroke="grey" stroke-width="2" d="M140.98,-375.6C107.77,-372.26 52.68,-361.09 27,-324 12.61,-303.22 29.77,-277.97 47.8,-259.68"/>
<polygon fill="grey" stroke="grey" stroke-width="2" points="50.7,-261.75 55.49,-252.3 45.85,-256.7 50.7,-261.75"/>
</g>
<!-- 7 -->
<g id="node8" class="node">
<title>7</title>
<path fill="none" stroke="#567bd8" stroke-width="2" d="M145.5,-324C145.5,-324 48.5,-324 48.5,-324 42.5,-324 36.5,-318 36.5,-312 36.5,-312 36.5,-300 36.5,-300 36.5,-294 42.5,-288 48.5,-288 48.5,-288 145.5,-288 145.5,-288 151.5,-288 157.5,-294 157.5,-300 157.5,-300 157.5,-312 157.5,-312 157.5,-318 151.5,-324 145.5,-324"/>
<text text-anchor="middle" x="97" y="-303.5" font-family="sans" font-size="10.00">find_feature_importance</text>
</g>
<!-- 4&#45;&gt;7 -->
<g id="edge11" class="edge">
<title>4&#45;&gt;7</title>
<path fill="none" stroke="grey" stroke-width="2" d="M150.45,-359.7C141.77,-351.14 131.14,-340.66 121.65,-331.3"/>
<polygon fill="grey" stroke="grey" stroke-width="2" points="123.93,-328.63 114.35,-324.1 119.01,-333.62 123.93,-328.63"/>
</g>
<!-- 9 -->
<g id="node10" class="node">
<title>9</title>
<path fill="none" stroke="#d87d56" stroke-width="2" d="M292,-324C292,-324 188,-324 188,-324 182,-324 176,-318 176,-312 176,-312 176,-300 176,-300 176,-294 182,-288 188,-288 188,-288 292,-288 292,-288 298,-288 304,-294 304,-300 304,-300 304,-312 304,-312 304,-318 298,-324 292,-324"/>
<text text-anchor="middle" x="240" y="-303.5" font-family="sans" font-size="10.00">combine_hp_performance</text>
</g>
<!-- 4&#45;&gt;9 -->
<g id="edge13" class="edge">
<title>4&#45;&gt;9</title>
<path fill="none" stroke="grey" stroke-width="2" d="M185.8,-359.7C194.6,-351.14 205.38,-340.66 215,-331.3"/>
<polygon fill="grey" stroke="grey" stroke-width="2" points="217.68,-333.58 222.41,-324.1 212.8,-328.57 217.68,-333.58"/>
</g>
<!-- 11 -->
<g id="node12" class="node">
<title>11</title>
<path fill="none" stroke="#d8a456" stroke-width="2" d="M422,-324C422,-324 334,-324 334,-324 328,-324 322,-318 322,-312 322,-312 322,-300 322,-300 322,-294 328,-288 334,-288 334,-288 422,-288 422,-288 428,-288 434,-294 434,-300 434,-300 434,-312 434,-312 434,-318 428,-324 422,-324"/>
<text text-anchor="middle" x="378" y="-303.5" font-family="sans" font-size="10.00">combine_benchmarks</text>
</g>
<!-- 4&#45;&gt;11 -->
<g id="edge15" class="edge">
<title>4&#45;&gt;11</title>
<path fill="none" stroke="grey" stroke-width="2" d="M195.02,-367.99C225.79,-357.74 277.02,-340.66 317.46,-327.18"/>
<polygon fill="grey" stroke="grey" stroke-width="2" points="318.58,-330.5 326.96,-324.01 316.37,-323.86 318.58,-330.5"/>
</g>
<!-- 5 -->
<g id="node6" class="node">
<title>5</title>
<path fill="none" stroke="#56d8a2" stroke-width="2" d="M200.5,-468C200.5,-468 135.5,-468 135.5,-468 129.5,-468 123.5,-462 123.5,-456 123.5,-456 123.5,-444 123.5,-444 123.5,-438 129.5,-432 135.5,-432 135.5,-432 200.5,-432 200.5,-432 206.5,-432 212.5,-438 212.5,-444 212.5,-444 212.5,-456 212.5,-456 212.5,-462 206.5,-468 200.5,-468"/>
<text text-anchor="middle" x="168" y="-447.5" font-family="sans" font-size="10.00">preprocess_data</text>
</g>
<!-- 5&#45;&gt;4 -->
<g id="edge9" class="edge">
<title>5&#45;&gt;4</title>
<path fill="none" stroke="grey" stroke-width="2" d="M168,-431.7C168,-423.98 168,-414.71 168,-406.11"/>
<polygon fill="grey" stroke="grey" stroke-width="2" points="171.5,-406.1 168,-396.1 164.5,-406.1 171.5,-406.1"/>
</g>
<!-- 6&#45;&gt;1 -->
<g id="edge4" class="edge">
<title>6&#45;&gt;1</title>
<path fill="none" stroke="grey" stroke-width="2" d="M181.88,-143.7C186.99,-135.56 193.2,-125.69 198.84,-116.7"/>
<polygon fill="grey" stroke="grey" stroke-width="2" points="201.89,-118.43 204.25,-108.1 195.96,-114.71 201.89,-118.43"/>
</g>
<!-- 7&#45;&gt;3 -->
<g id="edge7" class="edge">
<title>7&#45;&gt;3</title>
<path fill="none" stroke="grey" stroke-width="2" d="M92.06,-287.7C89.83,-279.9 87.15,-270.51 84.67,-261.83"/>
<polygon fill="grey" stroke="grey" stroke-width="2" points="88,-260.76 81.89,-252.1 81.27,-262.68 88,-260.76"/>
</g>
<!-- 8 -->
<g id="node9" class="node">
<title>8</title>
<path fill="none" stroke="#56d8c9" stroke-width="2" d="M290.5,-252C290.5,-252 207.5,-252 207.5,-252 201.5,-252 195.5,-246 195.5,-240 195.5,-240 195.5,-228 195.5,-228 195.5,-222 201.5,-216 207.5,-216 207.5,-216 290.5,-216 290.5,-216 296.5,-216 302.5,-222 302.5,-228 302.5,-228 302.5,-240 302.5,-240 302.5,-246 296.5,-252 290.5,-252"/>
<text text-anchor="middle" x="249" y="-231.5" font-family="sans" font-size="10.00">plot_hp_performance</text>
</g>
<!-- 8&#45;&gt;1 -->
<g id="edge3" class="edge">
<title>8&#45;&gt;1</title>
<path fill="none" stroke="grey" stroke-width="2" d="M248.98,-215.95C248.57,-197.8 246.77,-168.39 240,-144 237.47,-134.88 233.48,-125.4 229.42,-117.01"/>
<polygon fill="grey" stroke="grey" stroke-width="2" points="232.54,-115.42 224.89,-108.09 226.3,-118.59 232.54,-115.42"/>
</g>
<!-- 9&#45;&gt;8 -->
<g id="edge12" class="edge">
<title>9&#45;&gt;8</title>
<path fill="none" stroke="grey" stroke-width="2" d="M242.22,-287.7C243.22,-279.98 244.41,-270.71 245.51,-262.11"/>
<polygon fill="grey" stroke="grey" stroke-width="2" points="249,-262.47 246.8,-252.1 242.05,-261.58 249,-262.47"/>
</g>
<!-- 10 -->
<g id="node11" class="node">
<title>10</title>
<path fill="none" stroke="#56a2d8" stroke-width="2" d="M371.5,-180C371.5,-180 304.5,-180 304.5,-180 298.5,-180 292.5,-174 292.5,-168 292.5,-168 292.5,-156 292.5,-156 292.5,-150 298.5,-144 304.5,-144 304.5,-144 371.5,-144 371.5,-144 377.5,-144 383.5,-150 383.5,-156 383.5,-156 383.5,-168 383.5,-168 383.5,-174 377.5,-180 371.5,-180"/>
<text text-anchor="middle" x="338" y="-159.5" font-family="sans" font-size="10.00">plot_benchmarks</text>
</g>
<!-- 10&#45;&gt;1 -->
<g id="edge5" class="edge">
<title>10&#45;&gt;1</title>
<path fill="none" stroke="grey" stroke-width="2" d="M307.91,-143.88C291.68,-134.64 271.46,-123.13 254.03,-113.21"/>
<polygon fill="grey" stroke="grey" stroke-width="2" points="255.63,-110.09 245.2,-108.19 252.16,-116.18 255.63,-110.09"/>
</g>
<!-- 11&#45;&gt;10 -->
<g id="edge14" class="edge">
<title>11&#45;&gt;10</title>
<path fill="none" stroke="grey" stroke-width="2" d="M373.18,-287.87C366.33,-263.56 353.72,-218.82 345.61,-190.01"/>
<polygon fill="grey" stroke="grey" stroke-width="2" points="348.92,-188.87 342.84,-180.19 342.18,-190.76 348.92,-188.87"/>
</g>
</g>
</svg>
