<?xml version="1.0" encoding="UTF-8" standalone="no"?>
<!DOCTYPE svg PUBLIC "-//W3C//DTD SVG 1.1//EN"
 "http://www.w3.org/Graphics/SVG/1.1/DTD/svg11.dtd">
<!-- Generated by graphviz version 6.0.1 (0)
 -->
<!-- Title: snakemake_dag Pages: 1 -->
<svg width="963pt" height="548pt"
 viewBox="0.00 0.00 962.50 548.00" xmlns="http://www.w3.org/2000/svg" xmlns:xlink="http://www.w3.org/1999/xlink">
<g id="graph0" class="graph" transform="scale(1 1) rotate(0) translate(4 544)">
<title>snakemake_dag</title>
<polygon fill="white" stroke="none" points="-4,4 -4,-544 958.5,-544 958.5,4 -4,4"/>
<!-- 0 -->
<g id="node1" class="node">
<title>0</title>
<path fill="none" stroke="#567bd8" stroke-width="2" d="M199.5,-36C199.5,-36 169.5,-36 169.5,-36 163.5,-36 157.5,-30 157.5,-24 157.5,-24 157.5,-12 157.5,-12 157.5,-6 163.5,0 169.5,0 169.5,0 199.5,0 199.5,0 205.5,0 211.5,-6 211.5,-12 211.5,-12 211.5,-24 211.5,-24 211.5,-30 205.5,-36 199.5,-36"/>
<text text-anchor="middle" x="184.5" y="-15.5" font-family="sans" font-size="10.00">all</text>
</g>
<!-- 1 -->
<g id="node2" class="node">
<title>1</title>
<path fill="none" stroke="#56d87b" stroke-width="2" d="M125,-108C125,-108 64,-108 64,-108 58,-108 52,-102 52,-96 52,-96 52,-84 52,-84 52,-78 58,-72 64,-72 64,-72 125,-72 125,-72 131,-72 137,-78 137,-84 137,-84 137,-96 137,-96 137,-102 131,-108 125,-108"/>
<text text-anchor="middle" x="94.5" y="-87.5" font-family="sans" font-size="10.00">gene_2_symbol</text>
</g>
<!-- 1&#45;&gt;0 -->
<g id="edge2" class="edge">
<title>1&#45;&gt;0</title>
<path fill="none" stroke="grey" stroke-width="2" d="M116.75,-71.7C128.08,-62.88 142.03,-52.03 154.32,-42.47"/>
<polygon fill="grey" stroke="grey" stroke-width="2" points="156.76,-45.01 162.51,-36.1 152.47,-39.48 156.76,-45.01"/>
</g>
<!-- 2 -->
<g id="node3" class="node">
<title>2</title>
<path fill="none" stroke="#56d8b9" stroke-width="2" d="M106.5,-180C106.5,-180 76.5,-180 76.5,-180 70.5,-180 64.5,-174 64.5,-168 64.5,-168 64.5,-156 64.5,-156 64.5,-150 70.5,-144 76.5,-144 76.5,-144 106.5,-144 106.5,-144 112.5,-144 118.5,-150 118.5,-156 118.5,-156 118.5,-168 118.5,-168 118.5,-174 112.5,-180 106.5,-180"/>
<text text-anchor="middle" x="91.5" y="-159.5" font-family="sans" font-size="10.00">deseq2</text>
</g>
<!-- 2&#45;&gt;1 -->
<g id="edge6" class="edge">
<title>2&#45;&gt;1</title>
<path fill="none" stroke="grey" stroke-width="2" d="M92.24,-143.7C92.57,-135.98 92.97,-126.71 93.34,-118.11"/>
<polygon fill="grey" stroke="grey" stroke-width="2" points="96.84,-118.25 93.77,-108.1 89.84,-117.95 96.84,-118.25"/>
</g>
<!-- 3 -->
<g id="node4" class="node">
<title>3</title>
<path fill="none" stroke="#d8a456" stroke-width="2" d="M143.5,-252C143.5,-252 101.5,-252 101.5,-252 95.5,-252 89.5,-246 89.5,-240 89.5,-240 89.5,-228 89.5,-228 89.5,-222 95.5,-216 101.5,-216 101.5,-216 143.5,-216 143.5,-216 149.5,-216 155.5,-222 155.5,-228 155.5,-228 155.5,-240 155.5,-240 155.5,-246 149.5,-252 143.5,-252"/>
<text text-anchor="middle" x="122.5" y="-231.5" font-family="sans" font-size="10.00">deseq2_init</text>
</g>
<!-- 3&#45;&gt;1 -->
<g id="edge4" class="edge">
<title>3&#45;&gt;1</title>
<path fill="none" stroke="grey" stroke-width="2" d="M126.75,-215.9C130.51,-197.7 134.43,-168.25 127.5,-144 124.79,-134.51 119.83,-125.06 114.57,-116.83"/>
<polygon fill="grey" stroke="grey" stroke-width="2" points="117.36,-114.72 108.83,-108.43 111.58,-118.67 117.36,-114.72"/>
</g>
<!-- 3&#45;&gt;2 -->
<g id="edge7" class="edge">
<title>3&#45;&gt;2</title>
<path fill="none" stroke="grey" stroke-width="2" d="M114.84,-215.7C111.31,-207.73 107.04,-198.1 103.13,-189.26"/>
<polygon fill="grey" stroke="grey" stroke-width="2" points="106.32,-187.83 99.07,-180.1 99.92,-190.67 106.32,-187.83"/>
</g>
<!-- 19 -->
<g id="node20" class="node">
<title>19</title>
<path fill="none" stroke="#d85656" stroke-width="2" d="M199.5,-108C199.5,-108 169.5,-108 169.5,-108 163.5,-108 157.5,-102 157.5,-96 157.5,-96 157.5,-84 157.5,-84 157.5,-78 163.5,-72 169.5,-72 169.5,-72 199.5,-72 199.5,-72 205.5,-72 211.5,-78 211.5,-84 211.5,-84 211.5,-96 211.5,-96 211.5,-102 205.5,-108 199.5,-108"/>
<text text-anchor="middle" x="184.5" y="-87.5" font-family="sans" font-size="10.00">pca</text>
</g>
<!-- 3&#45;&gt;19 -->
<g id="edge36" class="edge">
<title>3&#45;&gt;19</title>
<path fill="none" stroke="grey" stroke-width="2" d="M129.98,-215.87C140.64,-191.46 160.3,-146.43 172.87,-117.64"/>
<polygon fill="grey" stroke="grey" stroke-width="2" points="176.2,-118.75 176.99,-108.19 169.79,-115.95 176.2,-118.75"/>
</g>
<!-- 4 -->
<g id="node5" class="node">
<title>4</title>
<path fill="none" stroke="#d86e56" stroke-width="2" d="M61,-324C61,-324 12,-324 12,-324 6,-324 0,-318 0,-312 0,-312 0,-300 0,-300 0,-294 6,-288 12,-288 12,-288 61,-288 61,-288 67,-288 73,-294 73,-300 73,-300 73,-312 73,-312 73,-318 67,-324 61,-324"/>
<text text-anchor="middle" x="36.5" y="-303.5" font-family="sans" font-size="10.00">count_matrix</text>
</g>
<!-- 4&#45;&gt;1 -->
<g id="edge5" class="edge">
<title>4&#45;&gt;1</title>
<path fill="none" stroke="grey" stroke-width="2" d="M35.71,-287.86C34.92,-257.65 35.97,-193.48 55.5,-144 59.4,-134.12 65.61,-124.42 71.95,-116.08"/>
<polygon fill="grey" stroke="grey" stroke-width="2" points="74.71,-118.22 78.23,-108.23 69.25,-113.85 74.71,-118.22"/>
</g>
<!-- 4&#45;&gt;3 -->
<g id="edge8" class="edge">
<title>4&#45;&gt;3</title>
<path fill="none" stroke="grey" stroke-width="2" d="M57.76,-287.7C68.59,-278.88 81.92,-268.03 93.66,-258.47"/>
<polygon fill="grey" stroke="grey" stroke-width="2" points="95.94,-261.13 101.49,-252.1 91.52,-255.7 95.94,-261.13"/>
</g>
<!-- 5 -->
<g id="node6" class="node">
<title>5</title>
<path fill="none" stroke="#d8bc56" stroke-width="2" d="M479.5,-396C479.5,-396 449.5,-396 449.5,-396 443.5,-396 437.5,-390 437.5,-384 437.5,-384 437.5,-372 437.5,-372 437.5,-366 443.5,-360 449.5,-360 449.5,-360 479.5,-360 479.5,-360 485.5,-360 491.5,-366 491.5,-372 491.5,-372 491.5,-384 491.5,-384 491.5,-390 485.5,-396 479.5,-396"/>
<text text-anchor="middle" x="464.5" y="-375.5" font-family="sans" font-size="10.00">align</text>
</g>
<!-- 5&#45;&gt;4 -->
<g id="edge9" class="edge">
<title>5&#45;&gt;4</title>
<path fill="none" stroke="grey" stroke-width="2" d="M437.17,-375.32C375.28,-371.08 219.77,-357.93 82.94,-324.07"/>
<polygon fill="grey" stroke="grey" stroke-width="2" points="83.67,-320.65 73.12,-321.6 81.96,-327.44 83.67,-320.65"/>
</g>
<!-- 9 -->
<g id="node10" class="node">
<title>9</title>
<path fill="none" stroke="#8fd856" stroke-width="2" d="M418.5,-252C418.5,-252 388.5,-252 388.5,-252 382.5,-252 376.5,-246 376.5,-240 376.5,-240 376.5,-228 376.5,-228 376.5,-222 382.5,-216 388.5,-216 388.5,-216 418.5,-216 418.5,-216 424.5,-216 430.5,-222 430.5,-228 430.5,-228 430.5,-240 430.5,-240 430.5,-246 424.5,-252 418.5,-252"/>
<text text-anchor="middle" x="403.5" y="-231.5" font-family="sans" font-size="10.00">multiqc</text>
</g>
<!-- 5&#45;&gt;9 -->
<g id="edge20" class="edge">
<title>5&#45;&gt;9</title>
<path fill="none" stroke="grey" stroke-width="2" d="M437.31,-375.44C378.28,-371.42 241.48,-358.51 213.5,-324 169.29,-269.48 299.28,-246.61 366.28,-238.63"/>
<polygon fill="grey" stroke="grey" stroke-width="2" points="366.91,-242.09 376.45,-237.48 366.12,-235.13 366.91,-242.09"/>
</g>
<!-- 10 -->
<g id="node11" class="node">
<title>10</title>
<path fill="none" stroke="#ced856" stroke-width="2" d="M942.5,-324C942.5,-324 836.5,-324 836.5,-324 830.5,-324 824.5,-318 824.5,-312 824.5,-312 824.5,-300 824.5,-300 824.5,-294 830.5,-288 836.5,-288 836.5,-288 942.5,-288 942.5,-288 948.5,-288 954.5,-294 954.5,-300 954.5,-300 954.5,-312 954.5,-312 954.5,-318 948.5,-324 942.5,-324"/>
<text text-anchor="middle" x="889.5" y="-303.5" font-family="sans" font-size="10.00">rseqc_junction_annotation</text>
</g>
<!-- 5&#45;&gt;10 -->
<g id="edge23" class="edge">
<title>5&#45;&gt;10</title>
<path fill="none" stroke="grey" stroke-width="2" d="M491.66,-372.87C514.34,-369.42 547.53,-364.38 576.5,-360 679.5,-344.43 708.24,-344.05 814.05,-324.21"/>
<polygon fill="grey" stroke="grey" stroke-width="2" points="815.01,-327.59 824.19,-322.29 813.71,-320.71 815.01,-327.59"/>
</g>
<!-- 12 -->
<g id="node13" class="node">
<title>12</title>
<path fill="none" stroke="#68d856" stroke-width="2" d="M516.5,-324C516.5,-324 412.5,-324 412.5,-324 406.5,-324 400.5,-318 400.5,-312 400.5,-312 400.5,-300 400.5,-300 400.5,-294 406.5,-288 412.5,-288 412.5,-288 516.5,-288 516.5,-288 522.5,-288 528.5,-294 528.5,-300 528.5,-300 528.5,-312 528.5,-312 528.5,-318 522.5,-324 516.5,-324"/>
<text text-anchor="middle" x="464.5" y="-303.5" font-family="sans" font-size="10.00">rseqc_junction_saturation</text>
</g>
<!-- 5&#45;&gt;12 -->
<g id="edge26" class="edge">
<title>5&#45;&gt;12</title>
<path fill="none" stroke="grey" stroke-width="2" d="M464.5,-359.7C464.5,-351.98 464.5,-342.71 464.5,-334.11"/>
<polygon fill="grey" stroke="grey" stroke-width="2" points="468,-334.1 464.5,-324.1 461,-334.1 468,-334.1"/>
</g>
<!-- 13 -->
<g id="node14" class="node">
<title>13</title>
<path fill="none" stroke="#56b9d8" stroke-width="2" d="M600,-324C600,-324 559,-324 559,-324 553,-324 547,-318 547,-312 547,-312 547,-300 547,-300 547,-294 553,-288 559,-288 559,-288 600,-288 600,-288 606,-288 612,-294 612,-300 612,-300 612,-312 612,-312 612,-318 606,-324 600,-324"/>
<text text-anchor="middle" x="579.5" y="-303.5" font-family="sans" font-size="10.00">rseqc_infer</text>
</g>
<!-- 5&#45;&gt;13 -->
<g id="edge28" class="edge">
<title>5&#45;&gt;13</title>
<path fill="none" stroke="grey" stroke-width="2" d="M491.75,-360.41C506.88,-351.2 525.92,-339.61 542.39,-329.59"/>
<polygon fill="grey" stroke="grey" stroke-width="2" points="544.52,-332.39 551.24,-324.2 540.88,-326.41 544.52,-332.39"/>
</g>
<!-- 14 -->
<g id="node15" class="node">
<title>14</title>
<path fill="none" stroke="#b6d856" stroke-width="2" d="M272.5,-324C272.5,-324 234.5,-324 234.5,-324 228.5,-324 222.5,-318 222.5,-312 222.5,-312 222.5,-300 222.5,-300 222.5,-294 228.5,-288 234.5,-288 234.5,-288 272.5,-288 272.5,-288 278.5,-288 284.5,-294 284.5,-300 284.5,-300 284.5,-312 284.5,-312 284.5,-318 278.5,-324 272.5,-324"/>
<text text-anchor="middle" x="253.5" y="-303.5" font-family="sans" font-size="10.00">rseqc_stat</text>
</g>
<!-- 5&#45;&gt;14 -->
<g id="edge29" class="edge">
<title>5&#45;&gt;14</title>
<path fill="none" stroke="grey" stroke-width="2" d="M437.27,-369.48C405.14,-360.42 350.01,-344.23 294.46,-324.18"/>
<polygon fill="grey" stroke="grey" stroke-width="2" points="295.42,-320.81 284.82,-320.67 293.02,-327.38 295.42,-320.81"/>
</g>
<!-- 15 -->
<g id="node16" class="node">
<title>15</title>
<path fill="none" stroke="#56d8a9" stroke-width="2" d="M698.5,-324C698.5,-324 642.5,-324 642.5,-324 636.5,-324 630.5,-318 630.5,-312 630.5,-312 630.5,-300 630.5,-300 630.5,-294 636.5,-288 642.5,-288 642.5,-288 698.5,-288 698.5,-288 704.5,-288 710.5,-294 710.5,-300 710.5,-300 710.5,-312 710.5,-312 710.5,-318 704.5,-324 698.5,-324"/>
<text text-anchor="middle" x="670.5" y="-303.5" font-family="sans" font-size="10.00">rseqc_innerdis</text>
</g>
<!-- 5&#45;&gt;15 -->
<g id="edge31" class="edge">
<title>5&#45;&gt;15</title>
<path fill="none" stroke="grey" stroke-width="2" d="M491.75,-367.88C521.25,-357.99 569.91,-341.62 620.86,-324.21"/>
<polygon fill="grey" stroke="grey" stroke-width="2" points="622.07,-327.49 630.4,-320.94 619.8,-320.87 622.07,-327.49"/>
</g>
<!-- 16 -->
<g id="node17" class="node">
<title>16</title>
<path fill="none" stroke="#59d856" stroke-width="2" d="M794,-324C794,-324 741,-324 741,-324 735,-324 729,-318 729,-312 729,-312 729,-300 729,-300 729,-294 735,-288 741,-288 741,-288 794,-288 794,-288 800,-288 806,-294 806,-300 806,-300 806,-312 806,-312 806,-318 800,-324 794,-324"/>
<text text-anchor="middle" x="767.5" y="-303.5" font-family="sans" font-size="10.00">rseqc_readdis</text>
</g>
<!-- 5&#45;&gt;16 -->
<g id="edge33" class="edge">
<title>5&#45;&gt;16</title>
<path fill="none" stroke="grey" stroke-width="2" d="M491.59,-372.61C536.84,-365.02 630.73,-348.13 719.22,-323.87"/>
<polygon fill="grey" stroke="grey" stroke-width="2" points="720.17,-327.24 728.87,-321.19 718.3,-320.49 720.17,-327.24"/>
</g>
<!-- 17 -->
<g id="node18" class="node">
<title>17</title>
<path fill="none" stroke="#80d856" stroke-width="2" d="M370.5,-324C370.5,-324 314.5,-324 314.5,-324 308.5,-324 302.5,-318 302.5,-312 302.5,-312 302.5,-300 302.5,-300 302.5,-294 308.5,-288 314.5,-288 314.5,-288 370.5,-288 370.5,-288 376.5,-288 382.5,-294 382.5,-300 382.5,-300 382.5,-312 382.5,-312 382.5,-318 376.5,-324 370.5,-324"/>
<text text-anchor="middle" x="342.5" y="-303.5" font-family="sans" font-size="10.00">rseqc_readdup</text>
</g>
<!-- 5&#45;&gt;17 -->
<g id="edge34" class="edge">
<title>5&#45;&gt;17</title>
<path fill="none" stroke="grey" stroke-width="2" d="M437.42,-361.46C420.89,-351.98 399.49,-339.7 381.19,-329.2"/>
<polygon fill="grey" stroke="grey" stroke-width="2" points="382.91,-326.15 372.5,-324.21 379.43,-332.22 382.91,-326.15"/>
</g>
<!-- 18 -->
<g id="node19" class="node">
<title>18</title>
<path fill="none" stroke="#56d892" stroke-width="2" d="M154,-324C154,-324 103,-324 103,-324 97,-324 91,-318 91,-312 91,-312 91,-300 91,-300 91,-294 97,-288 103,-288 103,-288 154,-288 154,-288 160,-288 166,-294 166,-300 166,-300 166,-312 166,-312 166,-318 160,-324 154,-324"/>
<text text-anchor="middle" x="128.5" y="-303.5" font-family="sans" font-size="10.00">rseqc_readgc</text>
</g>
<!-- 5&#45;&gt;18 -->
<g id="edge35" class="edge">
<title>5&#45;&gt;18</title>
<path fill="none" stroke="grey" stroke-width="2" d="M437.22,-373.13C386.31,-365.64 273.56,-347.78 180.5,-324 179.03,-323.63 177.55,-323.23 176.05,-322.82"/>
<polygon fill="grey" stroke="grey" stroke-width="2" points="176.68,-319.36 166.1,-319.94 174.73,-326.08 176.68,-319.36"/>
</g>
<!-- 6 -->
<g id="node7" class="node">
<title>6</title>
<path fill="none" stroke="#d87d56" stroke-width="2" d="M488.5,-468C488.5,-468 450.5,-468 450.5,-468 444.5,-468 438.5,-462 438.5,-456 438.5,-456 438.5,-444 438.5,-444 438.5,-438 444.5,-432 450.5,-432 450.5,-432 488.5,-432 488.5,-432 494.5,-432 500.5,-438 500.5,-444 500.5,-444 500.5,-456 500.5,-456 500.5,-462 494.5,-468 488.5,-468"/>
<text text-anchor="middle" x="469.5" y="-447.5" font-family="sans" font-size="10.00">star_index</text>
</g>
<!-- 6&#45;&gt;5 -->
<g id="edge10" class="edge">
<title>6&#45;&gt;5</title>
<path fill="none" stroke="grey" stroke-width="2" d="M468.26,-431.7C467.71,-423.98 467.05,-414.71 466.44,-406.11"/>
<polygon fill="grey" stroke="grey" stroke-width="2" points="469.93,-405.83 465.72,-396.1 462.94,-406.33 469.93,-405.83"/>
</g>
<!-- 7 -->
<g id="node8" class="node">
<title>7</title>
<path fill="none" stroke="#d89556" stroke-width="2" d="M492.5,-540C492.5,-540 446.5,-540 446.5,-540 440.5,-540 434.5,-534 434.5,-528 434.5,-528 434.5,-516 434.5,-516 434.5,-510 440.5,-504 446.5,-504 446.5,-504 492.5,-504 492.5,-504 498.5,-504 504.5,-510 504.5,-516 504.5,-516 504.5,-528 504.5,-528 504.5,-534 498.5,-540 492.5,-540"/>
<text text-anchor="middle" x="469.5" y="-519.5" font-family="sans" font-size="10.00">get_genome</text>
</g>
<!-- 7&#45;&gt;6 -->
<g id="edge11" class="edge">
<title>7&#45;&gt;6</title>
<path fill="none" stroke="grey" stroke-width="2" d="M469.5,-503.7C469.5,-495.98 469.5,-486.71 469.5,-478.11"/>
<polygon fill="grey" stroke="grey" stroke-width="2" points="473,-478.1 469.5,-468.1 466,-478.1 473,-478.1"/>
</g>
<!-- 8 -->
<g id="node9" class="node">
<title>8</title>
<path fill="none" stroke="#5692d8" stroke-width="2" d="M601.5,-540C601.5,-540 545.5,-540 545.5,-540 539.5,-540 533.5,-534 533.5,-528 533.5,-528 533.5,-516 533.5,-516 533.5,-510 539.5,-504 545.5,-504 545.5,-504 601.5,-504 601.5,-504 607.5,-504 613.5,-510 613.5,-516 613.5,-516 613.5,-528 613.5,-528 613.5,-534 607.5,-540 601.5,-540"/>
<text text-anchor="middle" x="573.5" y="-519.5" font-family="sans" font-size="10.00">get_annotation</text>
</g>
<!-- 8&#45;&gt;6 -->
<g id="edge12" class="edge">
<title>8&#45;&gt;6</title>
<path fill="none" stroke="grey" stroke-width="2" d="M548.06,-503.88C534.71,-494.89 518.18,-483.76 503.72,-474.03"/>
<polygon fill="grey" stroke="grey" stroke-width="2" points="505.29,-470.87 495.04,-468.19 501.38,-476.68 505.29,-470.87"/>
</g>
<!-- 11 -->
<g id="node12" class="node">
<title>11</title>
<path fill="none" stroke="#a7d856" stroke-width="2" d="M651.5,-396C651.5,-396 597.5,-396 597.5,-396 591.5,-396 585.5,-390 585.5,-384 585.5,-384 585.5,-372 585.5,-372 585.5,-366 591.5,-360 597.5,-360 597.5,-360 651.5,-360 651.5,-360 657.5,-360 663.5,-366 663.5,-372 663.5,-372 663.5,-384 663.5,-384 663.5,-390 657.5,-396 651.5,-396"/>
<text text-anchor="middle" x="624.5" y="-375.5" font-family="sans" font-size="10.00">rseqc_gtf2bed</text>
</g>
<!-- 8&#45;&gt;11 -->
<g id="edge24" class="edge">
<title>8&#45;&gt;11</title>
<path fill="none" stroke="grey" stroke-width="2" d="M579.65,-503.87C588.42,-479.46 604.59,-434.43 614.93,-405.64"/>
<polygon fill="grey" stroke="grey" stroke-width="2" points="618.24,-406.78 618.33,-396.19 611.65,-404.42 618.24,-406.78"/>
</g>
<!-- 9&#45;&gt;0 -->
<g id="edge1" class="edge">
<title>9&#45;&gt;0</title>
<path fill="none" stroke="grey" stroke-width="2" d="M385.95,-215.85C347.19,-177.97 254.17,-87.08 209.4,-43.33"/>
<polygon fill="grey" stroke="grey" stroke-width="2" points="211.73,-40.72 202.14,-36.23 206.84,-45.72 211.73,-40.72"/>
</g>
<!-- 10&#45;&gt;9 -->
<g id="edge21" class="edge">
<title>10&#45;&gt;9</title>
<path fill="none" stroke="grey" stroke-width="2" d="M824.2,-289.63C821.27,-289.06 818.35,-288.51 815.5,-288 678.14,-263.45 513.07,-245.73 440.63,-238.55"/>
<polygon fill="grey" stroke="grey" stroke-width="2" points="440.93,-235.06 430.63,-237.56 440.24,-242.02 440.93,-235.06"/>
</g>
<!-- 11&#45;&gt;10 -->
<g id="edge22" class="edge">
<title>11&#45;&gt;10</title>
<path fill="none" stroke="grey" stroke-width="2" d="M663.6,-366.67C703.34,-356.18 765.87,-339.66 815.08,-326.66"/>
<polygon fill="grey" stroke="grey" stroke-width="2" points="816.28,-329.96 825.05,-324.02 814.49,-323.19 816.28,-329.96"/>
</g>
<!-- 11&#45;&gt;12 -->
<g id="edge25" class="edge">
<title>11&#45;&gt;12</title>
<path fill="none" stroke="grey" stroke-width="2" d="M585.36,-359.88C563.49,-350.31 536.04,-338.3 512.84,-328.15"/>
<polygon fill="grey" stroke="grey" stroke-width="2" points="514.08,-324.87 503.51,-324.07 511.27,-331.28 514.08,-324.87"/>
</g>
<!-- 11&#45;&gt;13 -->
<g id="edge27" class="edge">
<title>11&#45;&gt;13</title>
<path fill="none" stroke="grey" stroke-width="2" d="M613.38,-359.7C608.14,-351.56 601.8,-341.69 596.02,-332.7"/>
<polygon fill="grey" stroke="grey" stroke-width="2" points="598.85,-330.62 590.5,-324.1 592.96,-334.41 598.85,-330.62"/>
</g>
<!-- 11&#45;&gt;15 -->
<g id="edge30" class="edge">
<title>11&#45;&gt;15</title>
<path fill="none" stroke="grey" stroke-width="2" d="M635.87,-359.7C641.22,-351.56 647.7,-341.69 653.61,-332.7"/>
<polygon fill="grey" stroke="grey" stroke-width="2" points="656.69,-334.38 659.26,-324.1 650.84,-330.54 656.69,-334.38"/>
</g>
<!-- 11&#45;&gt;16 -->
<g id="edge32" class="edge">
<title>11&#45;&gt;16</title>
<path fill="none" stroke="grey" stroke-width="2" d="M659.48,-359.88C678.7,-350.47 702.73,-338.71 723.24,-328.67"/>
<polygon fill="grey" stroke="grey" stroke-width="2" points="724.94,-331.73 732.38,-324.19 721.86,-325.44 724.94,-331.73"/>
</g>
<!-- 12&#45;&gt;9 -->
<g id="edge17" class="edge">
<title>12&#45;&gt;9</title>
<path fill="none" stroke="grey" stroke-width="2" d="M449.42,-287.7C442.11,-279.3 433.19,-269.07 425.16,-259.86"/>
<polygon fill="grey" stroke="grey" stroke-width="2" points="427.61,-257.34 418.41,-252.1 422.34,-261.94 427.61,-257.34"/>
</g>
<!-- 13&#45;&gt;9 -->
<g id="edge18" class="edge">
<title>13&#45;&gt;9</title>
<path fill="none" stroke="grey" stroke-width="2" d="M546.95,-291.8C543.76,-290.51 540.57,-289.23 537.5,-288 504.61,-274.84 467.1,-260.02 440.15,-249.41"/>
<polygon fill="grey" stroke="grey" stroke-width="2" points="441.32,-246.1 430.73,-245.7 438.75,-252.62 441.32,-246.1"/>
</g>
<!-- 14&#45;&gt;9 -->
<g id="edge13" class="edge">
<title>14&#45;&gt;9</title>
<path fill="none" stroke="grey" stroke-width="2" d="M284.58,-290.5C308.62,-279.28 341.97,-263.71 367.23,-251.92"/>
<polygon fill="grey" stroke="grey" stroke-width="2" points="368.9,-255.01 376.48,-247.61 365.94,-248.67 368.9,-255.01"/>
</g>
<!-- 15&#45;&gt;9 -->
<g id="edge15" class="edge">
<title>15&#45;&gt;9</title>
<path fill="none" stroke="grey" stroke-width="2" d="M630.49,-290.77C627.46,-289.8 624.44,-288.86 621.5,-288 558.54,-269.47 484.02,-252.37 440.43,-242.85"/>
<polygon fill="grey" stroke="grey" stroke-width="2" points="441.08,-239.41 430.57,-240.71 439.6,-246.25 441.08,-239.41"/>
</g>
<!-- 16&#45;&gt;9 -->
<g id="edge19" class="edge">
<title>16&#45;&gt;9</title>
<path fill="none" stroke="grey" stroke-width="2" d="M728.91,-290.68C725.74,-289.71 722.58,-288.8 719.5,-288 620.44,-262.36 500.57,-246.2 440.96,-239.14"/>
<polygon fill="grey" stroke="grey" stroke-width="2" points="441.23,-235.65 430.89,-237.96 440.42,-242.6 441.23,-235.65"/>
</g>
<!-- 17&#45;&gt;9 -->
<g id="edge16" class="edge">
<title>17&#45;&gt;9</title>
<path fill="none" stroke="grey" stroke-width="2" d="M357.58,-287.7C364.89,-279.3 373.81,-269.07 381.84,-259.86"/>
<polygon fill="grey" stroke="grey" stroke-width="2" points="384.66,-261.94 388.59,-252.1 379.39,-257.34 384.66,-261.94"/>
</g>
<!-- 18&#45;&gt;9 -->
<g id="edge14" class="edge">
<title>18&#45;&gt;9</title>
<path fill="none" stroke="grey" stroke-width="2" d="M166.16,-292.28C170.97,-290.78 175.84,-289.31 180.5,-288 245.35,-269.73 321.96,-252.44 366.41,-242.83"/>
<polygon fill="grey" stroke="grey" stroke-width="2" points="367.15,-246.25 376.19,-240.73 365.68,-239.41 367.15,-246.25"/>
</g>
<!-- 19&#45;&gt;0 -->
<g id="edge3" class="edge">
<title>19&#45;&gt;0</title>
<path fill="none" stroke="grey" stroke-width="2" d="M184.5,-71.7C184.5,-63.98 184.5,-54.71 184.5,-46.11"/>
<polygon fill="grey" stroke="grey" stroke-width="2" points="188,-46.1 184.5,-36.1 181,-46.1 188,-46.1"/>
</g>
</g>
</svg>
